<svg xmlns="http://www.w3.org/2000/svg" xmlns:xlink="http://www.w3.org/1999/xlink" width="87.618" height="87.731" viewBox="0 0 87.618 87.731">
  <defs>
    <linearGradient id="linear-gradient" x1="0.5" x2="0.5" y2="1" gradientUnits="objectBoundingBox">
      <stop offset="0"/>
      <stop offset="1" stop-color="#545454"/>
    </linearGradient>
  </defs>
  <g id="bb" transform="translate(-342.36 -477.362)">
    <g id="Group_13" data-name="Group 13" transform="translate(136.068 472.231)">
      <path id="Path_89" data-name="Path 89" d="M250.1,83.28a10.061,10.061,0,0,1-1.819,4.226,18.722,18.722,0,0,1-2.835,2.461,20.073,20.073,0,0,1-4.547,2.3,12.106,12.106,0,0,1-5.83.428l-15.03-2.086a6.438,6.438,0,0,0-1.658,0,8.8,8.8,0,0,1-1.337.107,10.43,10.43,0,0,0-2.888.535,6,6,0,0,0-2.675,1.444l-5.189-8.5a7.484,7.484,0,0,1,1.712-1.5q.749-.428,1.765-.909a19.848,19.848,0,0,1,6.633-1.765,27.177,27.177,0,0,1,2.942-.053,21.387,21.387,0,0,0,2.995-.107q2.889.481,5.777.909,2.941.375,5.884.8a9.812,9.812,0,0,0,4.333-.642q.588-.321,1.872-1.177a11.281,11.281,0,0,0,2.568-2.514A42.991,42.991,0,0,1,237,76.166q-2.941-.8-5.189-1.658l5.563-13.8a40.47,40.47,0,0,1-5.83-3.851,11.543,11.543,0,0,1-2.621-3.423,15.5,15.5,0,0,1-1.819-4.761,21.884,21.884,0,0,1-.321-4.119,21.288,21.288,0,0,1,1.5-7.061,15.894,15.894,0,0,1,5.563-6.954q3.37-2.568,6.579-5.3a59.514,59.514,0,0,0,6.365-6.365,6.79,6.79,0,0,1-3.958-6.472A7.215,7.215,0,0,1,250.1,5.131a7,7,0,0,1,5.135,2.14,7.006,7.006,0,0,1,2.14,5.135,6.86,6.86,0,0,1-3.958,6.472,58.873,58.873,0,0,0,6.258,6.365q3.21,2.729,6.686,5.3a15.616,15.616,0,0,1,5.456,6.954,22.415,22.415,0,0,1,1.551,7.061,25.942,25.942,0,0,1-.374,4.119,15.107,15.107,0,0,1-1.712,4.761,13.27,13.27,0,0,1-2.728,3.423,37.966,37.966,0,0,1-5.724,3.851l5.563,13.8q-2.354.856-5.3,1.658a43.726,43.726,0,0,1-5.67,1.07,10.438,10.438,0,0,0,2.514,2.514,20.25,20.25,0,0,0,1.926,1.177,9.812,9.812,0,0,0,4.333.642q2.889-.428,5.777-.8,2.941-.428,5.884-.909a19.562,19.562,0,0,0,2.889.107,29.184,29.184,0,0,1,3.049.053,20.806,20.806,0,0,1,6.633,1.765q.963.481,1.712.909a6.907,6.907,0,0,1,1.765,1.5l-5.242,8.5a6.013,6.013,0,0,0-2.728-1.444,9.812,9.812,0,0,0-2.782-.535,10.2,10.2,0,0,1-1.444-.107,6.022,6.022,0,0,0-1.605,0l-14.98,2.086a12.891,12.891,0,0,1-5.991-.428,13.434,13.434,0,0,1-4.493-2.407q-1.766-1.444-2.835-2.461A9.222,9.222,0,0,1,250.1,83.28" fill="url(#linear-gradient)"/>
      <path id="Path_90" data-name="Path 90" d="M264.4,73.12l-2.247-5.456a56.874,56.874,0,0,0-11.98-1.177,55.758,55.758,0,0,0-11.87,1.177l-2.247,5.4a60.469,60.469,0,0,1,28.35.054" fill="#fff"/>
      <path id="Path_91" data-name="Path 91" d="M259.9,62.1l-1.551-3.744V56.912a56.841,56.841,0,0,0-16.315,0l-.053,1.444L240.536,62.1a55.385,55.385,0,0,1,9.628-.8,56.637,56.637,0,0,1,9.735.8" fill="#fff"/>
      <path id="Path_92" data-name="Path 92" d="M258,82.32a18.245,18.245,0,0,1-4.279-5.082h-1.712a11.239,11.239,0,0,0,1.23,5.082H258" fill="#fff"/>
      <path id="Path_93" data-name="Path 93" d="M247,82.32a11.926,11.926,0,0,0,1.23-5.082h-1.712a17.617,17.617,0,0,1-4.333,5.082H247" fill="#fff"/>
      <path id="Path_94" data-name="Path 94" d="M248.1,43.48v4.547a1.979,1.979,0,0,0,3.958,0v-4.6h4.814a1.679,1.679,0,0,0,1.872-1.926,1.679,1.679,0,0,0-1.872-1.926h-4.814V34.761a1.979,1.979,0,0,0-3.958,0v4.814h-4.707a1.679,1.679,0,0,0-1.872,1.926,1.679,1.679,0,0,0,1.872,1.926l4.707.054" fill="#fff"/>
    </g>
  </g>
</svg>
