<svg xmlns="http://www.w3.org/2000/svg" xmlns:xlink="http://www.w3.org/1999/xlink" width="92.184" height="91.26" viewBox="0 0 92.184 91.26">
  <defs>
    <linearGradient id="linear-gradient" x1="0.5" x2="0.5" y2="1" gradientUnits="objectBoundingBox">
      <stop offset="0"/>
      <stop offset="1" stop-color="#545454"/>
    </linearGradient>
  </defs>
  <g id="bk" transform="translate(-337.791 -477.365)">
    <g id="Group_14" data-name="Group 14" transform="translate(-67.515 473.515)">
      <path id="Path_95" data-name="Path 95" d="M421.4,76.33l-1.765-10q-.054,0-.16-.214a4.422,4.422,0,0,0-1.551-.963,14.734,14.734,0,0,1-2.888-2.14q-2.354-1.979-3.691-3.209a21.115,21.115,0,0,1-2.354-2.675,20.056,20.056,0,0,1-3.637-10.86q-.535-6.152,4.975-12.25,5.564-6.1,15.03-5.724a35.387,35.387,0,0,1,8.291,1.712q1.551.642,3.156,1.284,1.658.588,3.263,1.23a14.023,14.023,0,0,1,1.5.856,9.96,9.96,0,0,1,2.674-9.361,10.063,10.063,0,0,1,7.168-2.995,9.607,9.607,0,0,1,7.114,2.995,9.631,9.631,0,0,1,2.942,7.061,15.5,15.5,0,0,1-.214,2.247,11.957,11.957,0,0,1,1.444-.8q2.46-1.07,6.472-2.514a32.126,32.126,0,0,1,8.291-1.765q9.468-.428,14.98,5.724,5.4,6.1,5.028,12.25a20.405,20.405,0,0,1-3.691,10.86,21.664,21.664,0,0,1-2.407,2.728q-1.337,1.23-3.584,3.156a17.366,17.366,0,0,1-2.995,2.14,3.653,3.653,0,0,0-1.444.963.626.626,0,0,1-.107.16.154.154,0,0,0-.053.107l-1.712,10.06L485,89.6q-2.674,2.408-11.98,3.958a132.075,132.075,0,0,1-21.5,1.551,131.078,131.078,0,0,1-21.82-1.605q-9.414-1.658-11.82-4.119l3.53-13.05" fill="url(#linear-gradient)"/>
      <path id="Path_96" data-name="Path 96" d="M453.4,62.15a143.34,143.34,0,0,1,15.08.909q5.885.749,10.59,1.765a59.059,59.059,0,0,1,6.526-5.51,25.7,25.7,0,0,0,5.028-4.493,14.193,14.193,0,0,0,2.568-8.666,13.332,13.332,0,0,0-2.3-7.97q-4.119-6.045-12.57-6.044a27.613,27.613,0,0,0-10.27,2.14,20.424,20.424,0,0,0-7.061,4.172A25.624,25.624,0,0,0,454.358,50a22.6,22.6,0,0,0-.909,6.258q-.054,3.8-.053,5.884" fill="#fff"/>
      <path id="Path_97" data-name="Path 97" d="M477.9,71.41q-9.843-2.729-26.21-2.728-16.47,0-26.53,2.782l.8,5.4q10.11-2.621,25.73-2.621,15.57,0,25.35,2.568l.856-5.4" fill="#fff"/>
      <path id="Path_98" data-name="Path 98" d="M479.3,87.4l-1.605-6.312q-10.431-2.408-26.21-2.407-15.615,0-26.1,2.407l-1.712,6.365q10.162-3.1,27.87-3.1a135.473,135.473,0,0,1,15.78.856A78.586,78.586,0,0,1,479.3,87.4" fill="#fff"/>
      <path id="Path_99" data-name="Path 99" d="M451.4,48.67a13.8,13.8,0,0,1,.642-2.086,19.186,19.186,0,0,1,1.23-3.53,18.553,18.553,0,0,1,.909-2.086q.642-1.23,1.337-2.782.428-.909.909-2.193.481-1.337.963-2.621a6.137,6.137,0,0,0,.428-2.3,5.957,5.957,0,0,0-1.872-4.44A6.191,6.191,0,0,0,451.4,24.76q-6.366,0-6.365,6.365a6.133,6.133,0,0,0,.428,2.3,49.339,49.339,0,0,0,1.819,4.814q.7,1.551,1.284,2.782.588,1.177,1.016,2.086a34.27,34.27,0,0,1,1.177,3.53q.107.321.642,2.033" fill="#fff"/>
      <path id="Path_100" data-name="Path 100" d="M453.3,20.86h-3.8V13.853h-4.44a1.584,1.584,0,0,1-1.819-1.765v-.053a1.584,1.584,0,0,1,1.819-1.765h4.44V5.723a1.679,1.679,0,0,1,1.926-1.872A1.655,1.655,0,0,1,453.3,5.723V10.27h4.6a1.56,1.56,0,0,1,1.765,1.765v.053a1.56,1.56,0,0,1-1.765,1.765l-4.547.053L453.3,20.86"/>
      <path id="Path_101" data-name="Path 101" d="M451.4,39.53a4.654,4.654,0,0,0-.267-.909,14.4,14.4,0,0,0-.535-1.551q-.16-.374-.428-.909-.268-.588-.535-1.23-.16-.374-.428-.963-.214-.642-.374-1.177a3.192,3.192,0,0,1-.16-1.016q0-2.835,2.728-2.835,2.835,0,2.835,2.782a1.873,1.873,0,0,1-.214,1.016q-.749,2.032-.8,2.193-.8,1.6-1.016,2.086a6.339,6.339,0,0,0-.481,1.551,2.38,2.38,0,0,0-.214.588q-.054.214-.107.374"/>
      <path id="Path_102" data-name="Path 102" d="M449.5,62.1q0-2.139-.107-5.884a27.007,27.007,0,0,0-.8-6.312,26.941,26.941,0,0,0-6.633-11.55,21.886,21.886,0,0,0-7.061-4.172,28.321,28.321,0,0,0-10.32-2.14q-8.451,0-12.52,6.044a13.427,13.427,0,0,0-2.3,8.024,13.808,13.808,0,0,0,2.568,8.612,23.765,23.765,0,0,0,5.135,4.761,82.645,82.645,0,0,1,6.419,5.242q4.653-1.016,10.48-1.765A136.8,136.8,0,0,1,449.5,62.1" fill="#fff"/>
      <path id="Path_103" data-name="Path 103" d="M445.4,57.98q-6.687.107-12.25.7a39.833,39.833,0,0,0-8.559,1.658,38.264,38.264,0,0,0-3.744-3.958q-2.086-2.032-3.691-3.8a8.409,8.409,0,0,1-2.675-5.991q0-4.011,1.337-5.884a8.384,8.384,0,0,1,4.44-3.156,17.861,17.861,0,0,1,6.044-1.07,16.718,16.718,0,0,1,7.382,1.712,22.807,22.807,0,0,1,4.6,2.889,28.907,28.907,0,0,1,5.67,8.024,16.181,16.181,0,0,1,1.016,4.493q.374,2.835.428,4.386" fill="url(#linear-gradient)"/>
      <path id="Path_104" data-name="Path 104" d="M457.3,57.98a41.779,41.779,0,0,1,.321-4.386,15.744,15.744,0,0,1,1.123-4.493,27.5,27.5,0,0,1,5.67-8.024,20.865,20.865,0,0,1,4.6-2.889,16.61,16.61,0,0,1,7.435-1.712,17.258,17.258,0,0,1,5.937,1.07,8.669,8.669,0,0,1,4.493,3.156q1.337,1.82,1.337,5.884a8.612,8.612,0,0,1-2.621,5.991q-1.711,1.765-3.691,3.584a28.983,28.983,0,0,0-3.8,4.172,40.994,40.994,0,0,0-8.666-1.658q-5.51-.588-12.14-.7" fill="url(#linear-gradient)"/>
    </g>
  </g>
</svg>
