<svg xmlns="http://www.w3.org/2000/svg" xmlns:xlink="http://www.w3.org/1999/xlink" width="91.149" height="89.958" viewBox="0 0 91.149 89.958">
  <defs>
    <linearGradient id="linear-gradient" x1="0.5" x2="0.5" y2="1" gradientUnits="objectBoundingBox">
      <stop offset="0"/>
      <stop offset="1" stop-color="#545454"/>
    </linearGradient>
  </defs>
  <g id="bn" transform="translate(-338.844 -477.383)">
    <g id="Group_15" data-name="Group 15" transform="translate(233.799 473.943)">
      <path id="Path_105" data-name="Path 105" d="M153.5,13.48a38.037,38.037,0,0,1,15.57,4.333,40.941,40.941,0,0,1,12.2,9.735,55.808,55.808,0,0,1,6.633,10.06,62.478,62.478,0,0,1,5.028,12.46,77.972,77.972,0,0,1,2.675,16.1q.588,8.4.588,15.57V93.4H130.4q-.481,0-.481-2.621a21.816,21.816,0,0,1,1.39-7.863,36.6,36.6,0,0,1,2.675-5.724,23.616,23.616,0,0,1,4.065-4.975q3.21-3.316,7.382-7.649a16.791,16.791,0,0,0,3.744-6.205,16.369,16.369,0,0,0,1.177-6.793,18.444,18.444,0,0,1-4.333,2.621q-11.34,4.065-16.42,11.77-.375.481-2.407,4.333a12.333,12.333,0,0,1-1.819,2.782A4.341,4.341,0,0,1,122.43,74.2a4.791,4.791,0,0,1-4.654-2.888,12.092,12.092,0,0,1-4.012.535,12.867,12.867,0,0,1-4.333-2.407,13.731,13.731,0,0,1-3.584-5.456,20.77,20.77,0,0,1-.8-5.884q0-4.492,5.563-11.87,6.526-8.5,6.954-12.94a28.465,28.465,0,0,1,.374-4.333,8.933,8.933,0,0,1,1.337-3.209q.7-1.07.909-1.444a14.46,14.46,0,0,1,.909-1.23,9.388,9.388,0,0,1,.8-.963q.321-.374.8-.963.588-.7,1.5-1.6a39.262,39.262,0,0,1-2.3-16.1,42.645,42.645,0,0,1,17.87,11.93,18,18,0,0,1,6.954-9.789,21.3,21.3,0,0,1,6.793,7.917" fill="url(#linear-gradient)"/>
      <path id="Path_106" data-name="Path 106" d="M122,67.72q.214-.481.7-1.444A12.687,12.687,0,0,0,123.6,63.6a1.409,1.409,0,0,0-1.551-1.5q-1.07,0-2.514,3.049a2.123,2.123,0,0,1-.642.749q-1.444,1.5.428,2.514a1.7,1.7,0,0,0,2.675-.7" fill="#fff"/>
      <path id="Path_107" data-name="Path 107" d="M153.6,47.87a17.415,17.415,0,0,0,3.691-10.97,1.817,1.817,0,0,0-2.033-1.765q-2.46,0-1.926,1.819a11.767,11.767,0,0,1-.588,4.868,13.652,13.652,0,0,1-2.728,4.547q-.8,1.6.963,2.354a1.792,1.792,0,0,0,2.621-.856" fill="#fff"/>
      <path id="Path_108" data-name="Path 108" d="M139.6,21.77a13.8,13.8,0,0,1,.107-4.172,13.592,13.592,0,0,0-6.044,2.995,1.624,1.624,0,0,0-.8,2.514,1.51,1.51,0,0,0,2.514.535q1.123-.588,2.033-1.07a7.99,7.99,0,0,1,2.193-.8" fill="#fff"/>
      <path id="Path_109" data-name="Path 109" d="M189.7,89.59q-.054,0,.107-2.888.16-2.941.161-6.312.053-6.687,0-13.8a57.58,57.58,0,0,0-1.926-14.28,74.671,74.671,0,0,0-4.012-11.66,47.292,47.292,0,0,0-4.761-8.4,32.674,32.674,0,0,0-10.48-9.789,39.406,39.406,0,0,0-13.85-5.242,9.85,9.85,0,0,1,.107,2.514A18.608,18.608,0,0,0,155.1,22.2a56.488,56.488,0,0,1,9.789,4.386,20.362,20.362,0,0,1,6.74,5.67,47.292,47.292,0,0,1,4.761,8.4A74.669,74.669,0,0,1,180.4,52.31a59.3,59.3,0,0,1,1.872,14.28q.053,7.114.053,13.8,0,3.371-.161,6.312a9.8,9.8,0,0,0,0,2.888h7.542" fill="#fff"/>
      <path id="Path_110" data-name="Path 110" d="M117.4,58.19a1.542,1.542,0,0,0,.321-2.568,2.07,2.07,0,0,0-2.835-.214,7.025,7.025,0,0,0-3.477,5.617q.054,1.765,2.086,1.658a1.761,1.761,0,0,0,1.872-1.979A3.7,3.7,0,0,1,117.4,58.19" fill="#fff"/>
      <path id="Path_111" data-name="Path 111" d="M130.9,31.56l1.177-.588a1.652,1.652,0,0,0,1.016-2.354,1.783,1.783,0,0,0-2.461-1.07A14.131,14.131,0,0,0,121.913,36a1.892,1.892,0,0,0,1.284,2.407,1.6,1.6,0,0,0,2.247-1.177,7.085,7.085,0,0,1,.642-1.177,3.244,3.244,0,0,0,1.551.642q3.263.535,3.8-2.888a3.218,3.218,0,0,0-.535-2.247" fill="#fff"/>
    </g>
  </g>
</svg>
