<svg xmlns="http://www.w3.org/2000/svg" xmlns:xlink="http://www.w3.org/1999/xlink" width="61.989" height="87.563" viewBox="0 0 61.989 87.563">
  <defs>
    <linearGradient id="linear-gradient" x1="0.5" x2="0.5" y2="1" gradientUnits="objectBoundingBox">
      <stop offset="0"/>
      <stop offset="1" stop-color="#545454"/>
    </linearGradient>
  </defs>
  <g id="bp" transform="translate(-367.994 -477.359)">
    <g id="Group_16" data-name="Group 16" transform="translate(348.004 471.642)">
      <path id="Path_112" data-name="Path 112" d="M51.02,93.28H22.13a30.655,30.655,0,0,1,3.477-28.94,31.007,31.007,0,0,1,14.44-11.23,15.1,15.1,0,0,1-6.2-5.3,14.39,14.39,0,0,1-2.354-8.077A14,14,0,0,1,35.232,30a14.332,14.332,0,0,1,9.2-4.761A10.264,10.264,0,0,1,40.1,16.629a10.6,10.6,0,0,1,3.156-7.7,10.913,10.913,0,0,1,15.459,0,10.5,10.5,0,0,1,3.209,7.7,10.265,10.265,0,0,1-4.333,8.612A14.332,14.332,0,0,1,66.79,30a14.509,14.509,0,0,1,1.283,17.812,15.181,15.181,0,0,1-6.151,5.3,31.015,31.015,0,0,1,14.44,11.23A29.817,29.817,0,0,1,81.979,82.1a30.789,30.789,0,0,1-2.086,11.18H51" fill="url(#linear-gradient)"/>
    </g>
  </g>
</svg>
