<svg xmlns="http://www.w3.org/2000/svg" xmlns:xlink="http://www.w3.org/1999/xlink" width="98.95" height="91.576" viewBox="0 0 98.95 91.576">
  <defs>
    <linearGradient id="linear-gradient" x1="0.5" x2="0.5" y2="1" gradientUnits="objectBoundingBox">
      <stop offset="0"/>
      <stop offset="1" stop-color="#545454"/>
    </linearGradient>
  </defs>
  <g id="bq" transform="translate(-331.008 -477.36)">
    <g id="Group_17" data-name="Group 17" transform="translate(-170.517 474.424)">
      <path id="Path_113" data-name="Path 113" d="M593.2,26.1a7.159,7.159,0,0,1-5.189-2.086,7.067,7.067,0,0,1-2.14-5.189,7,7,0,0,1,2.14-5.135,7.172,7.172,0,0,1,10.324,0,7.006,7.006,0,0,1,2.14,5.135A7.215,7.215,0,0,1,593.2,26.1"/>
      <path id="Path_114" data-name="Path 114" d="M508.8,26.1a7.127,7.127,0,0,1-7.275-7.275,7.094,7.094,0,0,1,2.086-5.135,7.236,7.236,0,0,1,10.378,0,7.006,7.006,0,0,1,2.14,5.135,7.066,7.066,0,0,1-2.14,5.189A7.157,7.157,0,0,1,508.8,26.1"/>
      <path id="Path_115" data-name="Path 115" d="M573.5,20.22a7.127,7.127,0,0,1-7.275-7.275A7.3,7.3,0,0,1,578.689,7.81a7.006,7.006,0,0,1,2.14,5.135,7.066,7.066,0,0,1-2.14,5.189A7.158,7.158,0,0,1,573.5,20.22"/>
      <path id="Path_116" data-name="Path 116" d="M528.5,20.22a7.159,7.159,0,0,1-5.189-2.086,7.067,7.067,0,0,1-2.14-5.189A7.307,7.307,0,0,1,528.5,5.67a7,7,0,0,1,5.135,2.14,7.005,7.005,0,0,1,2.14,5.135A7.215,7.215,0,0,1,528.5,20.22"/>
      <path id="Path_117" data-name="Path 117" d="M583.9,89.11q-2.621,2.3-11.77,3.851a127.233,127.233,0,0,1-21.08,1.551,125.383,125.383,0,0,1-21.34-1.605q-9.2-1.6-11.61-4.012l3.37-12.84-1.5-8.4-4.707-8.184L510.718,26.2l2.621-1.016L528,49.9l.321-29.42,3.637-.642,11.18,29.58,5.991-31.83h3.691l5.991,31.72,11.07-29.47,3.691.642.321,29.42,14.71-24.77,2.514,1.177-4.44,33.11L581.915,67.6l-1.5,8.5,3.477,13" fill="url(#linear-gradient)"/>
      <path id="Path_118" data-name="Path 118" d="M578.8,87.4l-1.6-6.312q-10.431-2.408-26.21-2.407-15.615,0-26.1,2.407l-1.712,6.365q10.163-3.1,27.87-3.1a135.475,135.475,0,0,1,15.78.856A78.584,78.584,0,0,1,578.8,87.4" fill="#fff"/>
      <path id="Path_119" data-name="Path 119" d="M577.4,71.41q-9.843-2.729-26.21-2.728-16.47,0-26.53,2.782l.8,5.4q10.11-2.621,25.73-2.621,15.57,0,25.35,2.568l.856-5.4" fill="#fff"/>
      <path id="Path_120" data-name="Path 120" d="M551,17.54a7.065,7.065,0,0,1-5.189-2.14,7.157,7.157,0,0,1-2.086-5.189A7.215,7.215,0,0,1,551,2.936a7,7,0,0,1,5.135,2.14,6.92,6.92,0,0,1,2.193,5.135,6.981,6.981,0,0,1-2.193,5.189A7,7,0,0,1,551,17.54"/>
      <path id="Path_121" data-name="Path 121" d="M581.2,61.83a60.944,60.944,0,0,0-12.52-2.621,135.05,135.05,0,0,0-17.76-1.07,137.694,137.694,0,0,0-17.44,1.016,60.971,60.971,0,0,0-12.46,2.568l2.675,4.868a58.978,58.978,0,0,1,11.66-1.926q7.167-.588,15.67-.588t15.73.588a56.076,56.076,0,0,1,11.71,1.979l2.728-4.814" fill="#fff"/>
    </g>
  </g>
</svg>
