<svg xmlns="http://www.w3.org/2000/svg" xmlns:xlink="http://www.w3.org/1999/xlink" width="87.618" height="87.731" viewBox="0 0 87.618 87.731">
  <defs>
    <linearGradient id="linear-gradient" x1="0.5" x2="0.5" y2="1" gradientUnits="objectBoundingBox">
      <stop offset="0" stop-color="#fff"/>
      <stop offset="1" stop-color="#acacac"/>
    </linearGradient>
  </defs>
  <g id="wb" transform="translate(-342.346 -477.386)">
    <g id="Group_19" data-name="Group 19" transform="translate(135.854 272.035)">
      <path id="Path_128" data-name="Path 128" d="M250.3,283.5a10.061,10.061,0,0,1-1.819,4.226,18.716,18.716,0,0,1-2.835,2.461,20.073,20.073,0,0,1-4.547,2.3,12.1,12.1,0,0,1-5.83.428l-15.03-2.086a6.439,6.439,0,0,0-1.658,0,8.8,8.8,0,0,1-1.337.107,10.43,10.43,0,0,0-2.888.535,6,6,0,0,0-2.675,1.444l-5.189-8.505a7.484,7.484,0,0,1,1.712-1.5q.749-.428,1.765-.909a19.848,19.848,0,0,1,6.633-1.765,27.183,27.183,0,0,1,2.942-.053,21.388,21.388,0,0,0,2.995-.107q2.889.482,5.777.909,2.941.374,5.884.8a9.811,9.811,0,0,0,4.333-.642q.588-.321,1.872-1.177a11.28,11.28,0,0,0,2.568-2.514,42.988,42.988,0,0,1-5.777-1.07q-2.941-.8-5.189-1.658l5.563-13.8a40.47,40.47,0,0,1-5.83-3.851,11.543,11.543,0,0,1-2.621-3.423,15.5,15.5,0,0,1-1.819-4.761,21.884,21.884,0,0,1-.321-4.119,21.288,21.288,0,0,1,1.5-7.061,15.894,15.894,0,0,1,5.563-6.954q3.37-2.568,6.579-5.3a59.514,59.514,0,0,0,6.365-6.365,6.79,6.79,0,0,1-3.958-6.472,7.215,7.215,0,0,1,7.275-7.275,7.307,7.307,0,0,1,7.275,7.275,6.86,6.86,0,0,1-3.958,6.472,58.873,58.873,0,0,0,6.258,6.365q3.21,2.729,6.686,5.3a15.616,15.616,0,0,1,5.456,6.954,22.415,22.415,0,0,1,1.551,7.061,25.942,25.942,0,0,1-.374,4.119,15.107,15.107,0,0,1-1.712,4.761,13.27,13.27,0,0,1-2.728,3.423,37.967,37.967,0,0,1-5.724,3.851l5.563,13.8q-2.354.856-5.3,1.658a43.729,43.729,0,0,1-5.67,1.07,10.438,10.438,0,0,0,2.514,2.514,20.255,20.255,0,0,0,1.926,1.177,9.81,9.81,0,0,0,4.333.642q2.889-.428,5.777-.8,2.941-.428,5.884-.909a19.562,19.562,0,0,0,2.889.107,29.188,29.188,0,0,1,3.049.053A20.806,20.806,0,0,1,290.633,282q.963.482,1.712.909a6.907,6.907,0,0,1,1.765,1.5l-5.242,8.505a6.013,6.013,0,0,0-2.728-1.444,9.812,9.812,0,0,0-2.782-.535,10.212,10.212,0,0,1-1.444-.107,6.023,6.023,0,0,0-1.605,0l-14.98,2.086a12.89,12.89,0,0,1-5.991-.428,13.434,13.434,0,0,1-4.493-2.407q-1.766-1.444-2.835-2.461A9.221,9.221,0,0,1,250.3,283.5"/>
      <path id="Path_129" data-name="Path 129" d="M250.3,274.5a41.619,41.619,0,0,0,7.061-.588q3.477-.642,6.686-1.5a53.629,53.629,0,0,0-13.75-1.658,52.871,52.871,0,0,0-13.75,1.658q3.1.856,6.579,1.5a42.887,42.887,0,0,0,7.168.588" fill="url(#linear-gradient)"/>
      <path id="Path_130" data-name="Path 130" d="M248.4,277.4h-1.712q-3,4.814-5.724,6.044a23.429,23.429,0,0,1-2.835,1.177,10.983,10.983,0,0,1-3.584.535q-.374,0-5.724-.856a32.518,32.518,0,0,1-4.065-.8,16.716,16.716,0,0,0-2.354-.535,24.782,24.782,0,0,0-7.114.321,15.576,15.576,0,0,0-4.6,1.551l2.568,4.172a2.916,2.916,0,0,1,1.658-.8q1.07-.214,1.926-.428a14.466,14.466,0,0,1,4.279-.107q.7.16,2.728.428,2.032.214,5.4.749a45.9,45.9,0,0,0,5.456.588q5.616,0,8.612-2.14a15.291,15.291,0,0,0,3.423-3.851A10.733,10.733,0,0,0,248.4,277.4" fill="url(#linear-gradient)"/>
      <path id="Path_131" data-name="Path 131" d="M250.3,267a57.74,57.74,0,0,1,12.04,1.23l-2.568-6.579a60.559,60.559,0,0,0-18.989,0l-2.568,6.579a57.416,57.416,0,0,1,12.09-1.23" fill="url(#linear-gradient)"/>
      <path id="Path_132" data-name="Path 132" d="M250.3,257.3a59.806,59.806,0,0,1,9.949.8,13.823,13.823,0,0,0,7.6-5.83,14.5,14.5,0,0,0,2.033-7.542,14.137,14.137,0,0,0-1.23-5.4,14.376,14.376,0,0,0-4.012-5.4q-3.156-2.62-6.9-5.724a71.607,71.607,0,0,1-7.435-7.328,75.521,75.521,0,0,1-7.489,7.328q-3.744,3.1-6.847,5.724a14.158,14.158,0,0,0-4.065,5.4,14.288,14.288,0,0,0,.8,12.945,13.577,13.577,0,0,0,7.649,5.83,59.185,59.185,0,0,1,9.949-.8" fill="url(#linear-gradient)"/>
      <path id="Path_133" data-name="Path 133" d="M248.4,243.6l-4.44-.053a1.819,1.819,0,0,1,0-3.638h4.44v-4.6a1.679,1.679,0,0,1,1.926-1.872,1.655,1.655,0,0,1,1.872,1.872v4.6h4.6a1.82,1.82,0,0,1,0,3.638h-4.6v4.386a1.679,1.679,0,0,1-1.872,1.926,1.7,1.7,0,0,1-1.926-1.926V243.6"/>
      <path id="Path_134" data-name="Path 134" d="M250.3,216.2q3.638,0,3.637-3.637t-3.637-3.637q-3.638,0-3.637,3.637T250.3,216.2" fill="#fff"/>
      <path id="Path_135" data-name="Path 135" d="M252.2,277.4a10.992,10.992,0,0,0,1.6,6.044,15.544,15.544,0,0,0,3.53,3.851q2.941,2.139,8.612,2.14a47.405,47.405,0,0,0,5.456-.588q3.316-.535,5.349-.749,2.033-.267,2.728-.428a14.466,14.466,0,0,1,4.279.107q.856.214,1.872.428a3.237,3.237,0,0,1,1.765.8l2.568-4.172a16.246,16.246,0,0,0-4.654-1.551,24.78,24.78,0,0,0-7.114-.321,16.1,16.1,0,0,0-2.407.535,30.3,30.3,0,0,1-3.958.8q-5.4.856-5.724.856a11.163,11.163,0,0,1-3.637-.535,20.417,20.417,0,0,1-2.782-1.177q-2.835-1.284-5.777-6.044H252.2" fill="url(#linear-gradient)"/>
    </g>
  </g>
</svg>
