<svg xmlns="http://www.w3.org/2000/svg" xmlns:xlink="http://www.w3.org/1999/xlink" width="92.184" height="91.189" viewBox="0 0 92.184 91.189">
  <defs>
    <linearGradient id="linear-gradient" x1="0.5" x2="0.5" y2="1" gradientUnits="objectBoundingBox">
      <stop offset="0" stop-color="#fff"/>
      <stop offset="1" stop-color="#acacac"/>
    </linearGradient>
    <linearGradient id="linear-gradient-4" x1="0.5" x2="0.5" y2="1" gradientUnits="objectBoundingBox">
      <stop offset="0" stop-color="#fff"/>
      <stop offset="1" stop-color="#aaa"/>
    </linearGradient>
  </defs>
  <g id="wk" transform="translate(-337.777 -477.409)">
    <g id="Group_20" data-name="Group 20" transform="translate(-67.729 273.319)">
      <path id="Path_136" data-name="Path 136" d="M421.6,276.5l-1.765-10q-.054,0-.16-.214a4.422,4.422,0,0,0-1.551-.963,14.732,14.732,0,0,1-2.888-2.14q-2.354-1.979-3.691-3.209a21.115,21.115,0,0,1-2.354-2.675,20.056,20.056,0,0,1-3.637-10.86q-.535-6.151,4.975-12.25,5.564-6.1,15.03-5.724a35.387,35.387,0,0,1,8.291,1.712q1.551.642,3.156,1.284,1.658.588,3.263,1.23a14.024,14.024,0,0,1,1.5.856,9.96,9.96,0,0,1,2.674-9.361,10.063,10.063,0,0,1,7.168-2.995,10.136,10.136,0,0,1,10.056,10.056,15.5,15.5,0,0,1-.214,2.247,11.97,11.97,0,0,1,1.444-.8q2.46-1.07,6.472-2.514a32.126,32.126,0,0,1,8.291-1.765q9.468-.428,14.98,5.724,5.4,6.1,5.028,12.25a20.405,20.405,0,0,1-3.691,10.86,21.664,21.664,0,0,1-2.407,2.728q-1.337,1.23-3.584,3.156a17.366,17.366,0,0,1-2.995,2.14,3.653,3.653,0,0,0-1.444.963.627.627,0,0,1-.107.16.154.154,0,0,0-.053.107l-1.712,10.06,3.53,13.21q-2.674,2.408-11.98,3.958a149.455,149.455,0,0,1-43.32-.054q-9.414-1.658-11.82-4.119l3.53-13.05"/>
      <path id="Path_137" data-name="Path 137" d="M424.9,273.3q10.162-2.568,26.96-2.568,16.47,0,26.58,2.461l1.337-7.863q-10.752-2.835-28.14-2.835-17.49,0-28.08,2.888l1.337,7.917" fill="url(#linear-gradient)"/>
      <path id="Path_138" data-name="Path 138" d="M479.5,282.8l-1.605-6.151q-10.592-2.354-26.21-2.354-15.57,0-26.16,2.354l-1.712,6.2q10.217-3,27.92-2.995,17.6,0,27.76,2.942" fill="url(#linear-gradient)"/>
      <path id="Path_139" data-name="Path 139" d="M480.9,287.8q-10.324-4.173-28.99-4.172-19.365,0-29.31,4.279,9.414,3.744,29.15,3.744a132.876,132.876,0,0,0,17.17-1.016A50.122,50.122,0,0,0,480.9,287.8" fill="url(#linear-gradient)"/>
      <path id="Path_140" data-name="Path 140" d="M449.8,258.8q-.054-2.086-.16-4.119a21.539,21.539,0,0,0-.8-4.6,26.941,26.941,0,0,0-6.633-11.55,21.886,21.886,0,0,0-7.061-4.172,28.321,28.321,0,0,0-10.32-2.14q-8.451,0-12.52,6.044a13.427,13.427,0,0,0-2.3,8.024,13.808,13.808,0,0,0,2.568,8.612,25.867,25.867,0,0,0,3.958,3.958q2.408,1.979,4.493,3.584,9.361-3.371,28.78-3.637" fill="url(#linear-gradient-4)"/>
      <path id="Path_141" data-name="Path 141" d="M451.6,248.9a13.8,13.8,0,0,1,.642-2.086,19.179,19.179,0,0,1,1.23-3.53,18.553,18.553,0,0,1,.909-2.086q.642-1.23,1.337-2.782.428-.909.909-2.193.481-1.337.963-2.621a6.138,6.138,0,0,0,.428-2.3,5.957,5.957,0,0,0-1.872-4.44,6.191,6.191,0,0,0-4.547-1.872q-6.366,0-6.365,6.365a6.133,6.133,0,0,0,.428,2.3,49.339,49.339,0,0,0,1.819,4.814q.7,1.551,1.284,2.782.588,1.177,1.016,2.086a34.292,34.292,0,0,1,1.177,3.53q.107.321.642,2.033" fill="url(#linear-gradient-4)"/>
      <path id="Path_142" data-name="Path 142" d="M453.5,258.8a141.063,141.063,0,0,1,16.85,1.123,61.844,61.844,0,0,1,11.98,2.461q2.033-1.605,4.44-3.53a26.6,26.6,0,0,0,4.012-4.012,15.442,15.442,0,0,0,.268-16.636q-4.119-5.991-12.52-5.991a28.042,28.042,0,0,0-10.32,2.086,22.206,22.206,0,0,0-7.061,4.172,27.123,27.123,0,0,0-6.633,11.55,22.233,22.233,0,0,0-.909,4.6q-.107,2.032-.107,4.172" fill="url(#linear-gradient-4)"/>
      <path id="Path_143" data-name="Path 143" d="M453.5,221.1h-3.8v-7.007h-4.44a1.584,1.584,0,0,1-1.819-1.765v-.053a1.584,1.584,0,0,1,1.819-1.765h4.44v-4.547a1.679,1.679,0,0,1,1.926-1.872,1.655,1.655,0,0,1,1.872,1.872v4.547h4.6a1.56,1.56,0,0,1,1.765,1.765v.053a1.56,1.56,0,0,1-1.765,1.765l-4.547.053L453.5,221.1"/>
    </g>
  </g>
</svg>
