<svg xmlns="http://www.w3.org/2000/svg" xmlns:xlink="http://www.w3.org/1999/xlink" width="91.149" height="89.959" viewBox="0 0 91.149 89.959">
  <defs>
    <linearGradient id="linear-gradient" x1="0.5" x2="0.5" y2="1" gradientUnits="objectBoundingBox">
      <stop offset="0" stop-color="#fff"/>
      <stop offset="1" stop-color="#aaa"/>
    </linearGradient>
  </defs>
  <g id="wn" transform="translate(-338.844 -477.406)">
    <g id="Group_21" data-name="Group 21" transform="translate(233.799 273.747)">
      <path id="Path_144" data-name="Path 144" d="M153.5,213.7a38.037,38.037,0,0,1,15.57,4.333,40.941,40.941,0,0,1,12.2,9.735,55.808,55.808,0,0,1,6.633,10.06,62.478,62.478,0,0,1,5.028,12.46,77.972,77.972,0,0,1,2.675,16.1q.588,8.4.588,15.57v11.66H130.4q-.481,0-.481-2.621a21.816,21.816,0,0,1,1.39-7.863,36.6,36.6,0,0,1,2.675-5.724,23.616,23.616,0,0,1,4.065-4.975q3.21-3.316,7.382-7.649a16.791,16.791,0,0,0,3.744-6.2,16.369,16.369,0,0,0,1.177-6.793,18.465,18.465,0,0,1-4.333,2.621q-11.34,4.065-16.42,11.77-.375.482-2.407,4.333a12.333,12.333,0,0,1-1.819,2.782,4.341,4.341,0,0,1-2.942,1.123,4.791,4.791,0,0,1-4.654-2.889,12.09,12.09,0,0,1-4.012.535,12.867,12.867,0,0,1-4.333-2.407,13.731,13.731,0,0,1-3.584-5.456,20.77,20.77,0,0,1-.8-5.884q0-4.492,5.563-11.87,6.526-8.5,6.954-12.94a28.465,28.465,0,0,1,.374-4.333,8.934,8.934,0,0,1,1.337-3.209q.7-1.07.909-1.444a14.444,14.444,0,0,1,.909-1.23,9.389,9.389,0,0,1,.8-.963q.321-.374.8-.963.588-.7,1.5-1.6a39.262,39.262,0,0,1-2.3-16.1,42.645,42.645,0,0,1,17.87,11.93,18,18,0,0,1,6.954-9.789,21.3,21.3,0,0,1,6.793,7.917"/>
      <path id="Path_145" data-name="Path 145" d="M189.7,289.8q-.054,0,.107-2.889.16-2.941.161-6.312.053-6.687,0-13.8a57.585,57.585,0,0,0-1.926-14.28,74.671,74.671,0,0,0-4.012-11.66,47.291,47.291,0,0,0-4.761-8.4,32.674,32.674,0,0,0-10.48-9.789,39.406,39.406,0,0,0-13.85-5.242,25.392,25.392,0,0,1,.428,5.135q-.107,1.926-1.819,1.926-1.98,0-1.765-1.926a15.7,15.7,0,0,0-5.028-12.09,15.323,15.323,0,0,0-4.386,9.949q-.107,1.872-1.926,1.658-1.712-.053-1.712-1.979l.107-.428a27.48,27.48,0,0,0-4.6,1.979,1.548,1.548,0,0,1-2.514-.535q-.963-1.605.856-2.514,2.3-1.177,3.477-1.765a37.99,37.99,0,0,0-10.48-7.6,37.422,37.422,0,0,0,4.065,14.07,1.659,1.659,0,0,1-.428,2.461,1.512,1.512,0,0,1-2.514-.374,17.186,17.186,0,0,1-1.07-1.926,14.928,14.928,0,0,0-1.5,1.658,23.725,23.725,0,0,0-1.337,2.14A26.249,26.249,0,0,0,121.457,230a5.728,5.728,0,0,0-.428,2.193q.107.8.16,1.819A15.762,15.762,0,0,1,119,239.95q-1.659,2.781-4.279,6.793-2.514,3.852-3.851,5.777a14.217,14.217,0,0,0-2.033,4.921,10.274,10.274,0,0,0,0,4.44,6.919,6.919,0,0,0,2.086,4.012q2.46,2.514,4.761,2.3a4.932,4.932,0,0,0,1.979-.588,4.025,4.025,0,0,0,1.979-2.247q1.391-3.049,2.3-3.049,1.337,0,1.444,1.5a17.108,17.108,0,0,1-.856,2.675,14.851,14.851,0,0,1-1.284,2.247q-1.016,1.391-.909,1.177.856,3.049,2.835,1.07a8.169,8.169,0,0,0,1.337-2.193q.749-1.605,2.354-4.333a22.712,22.712,0,0,1,4.012-5.135,46.878,46.878,0,0,1,3.8-3.209q.963-.7,2.354-1.6a22.693,22.693,0,0,1,3.744-1.872q1.872-.749,4.119-1.819a15.681,15.681,0,0,0,4.065-2.835,16.21,16.21,0,0,0,3.8-5.937,12.657,12.657,0,0,0,.535-4.868q-.481-1.818,1.819-1.819a1.764,1.764,0,0,1,1.926,1.765,19.014,19.014,0,0,1-3.423,11.02,16.761,16.761,0,0,1,.588,7.489,24.343,24.343,0,0,1-2.3,7.007q-1.766,3.691-7.221,8.238-11.073,9.2-10.48,18.94h55.523" fill="url(#linear-gradient)"/>
      <path id="Path_146" data-name="Path 146" d="M117.2,257.3a3.848,3.848,0,0,0-1.872,2.568,1.652,1.652,0,0,1-1.658,1.926q-1.872.214-1.926-1.605a7.112,7.112,0,0,1,3.156-5.617,1.653,1.653,0,0,1,2.568.214,1.538,1.538,0,0,1-.268,2.514"/>
      <path id="Path_147" data-name="Path 147" d="M133.1,231.8a3.217,3.217,0,0,1,.535,2.247q-.535,3.423-3.8,2.888a3.243,3.243,0,0,1-1.551-.642,7.068,7.068,0,0,0-.642,1.177,1.6,1.6,0,0,1-2.247,1.177,1.893,1.893,0,0,1-1.284-2.407,14.133,14.133,0,0,1,8.719-8.452,1.718,1.718,0,0,1,2.407,1.07,1.612,1.612,0,0,1-.963,2.354q-.321.16-.588.321-.268.107-.588.267"/>
    </g>
  </g>
</svg>
