<svg xmlns="http://www.w3.org/2000/svg" xmlns:xlink="http://www.w3.org/1999/xlink" width="61.989" height="87.563" viewBox="0 0 61.989 87.563">
  <defs>
    <linearGradient id="linear-gradient" x1="0.5" x2="0.5" y2="1" gradientUnits="objectBoundingBox">
      <stop offset="0" stop-color="#fff"/>
      <stop offset="1" stop-color="#aaa"/>
    </linearGradient>
  </defs>
  <g id="wp" transform="translate(-367.994 -477.383)">
    <g id="Group_22" data-name="Group 22" transform="translate(348.004 271.446)">
      <path id="Path_148" data-name="Path 148" d="M51.02,293.5H22.13a30.655,30.655,0,0,1,3.477-28.94,31.007,31.007,0,0,1,14.44-11.23,15.1,15.1,0,0,1-6.2-5.3,14.39,14.39,0,0,1-2.354-8.077,14,14,0,0,1,3.744-9.735,14.332,14.332,0,0,1,9.2-4.761,10.264,10.264,0,0,1-4.333-8.612,10.894,10.894,0,0,1,18.615-7.7,10.5,10.5,0,0,1,3.209,7.7,10.265,10.265,0,0,1-4.333,8.612,14.332,14.332,0,0,1,9.2,4.761,14.509,14.509,0,0,1,1.283,17.812,15.181,15.181,0,0,1-6.151,5.3,31.015,31.015,0,0,1,14.44,11.23,29.817,29.817,0,0,1,5.617,17.76,30.788,30.788,0,0,1-2.086,11.18H51"/>
      <path id="Path_149" data-name="Path 149" d="M51.02,289.8H77.28a26.866,26.866,0,0,0,1.123-7.542,26.191,26.191,0,0,0-4.654-15.14,27.548,27.548,0,0,0-11.87-10q-3.531-.267-3.53-3.851,0-2.835,3.584-4.172a10.725,10.725,0,0,0,4.975-9.2,10.992,10.992,0,0,0-9.522-10.8q-3.21-.267-3.209-3.637a4.047,4.047,0,0,1,1.177-2.782,7.1,7.1,0,0,0,2.888-5.884,7.263,7.263,0,0,0-12.411-5.135,7.094,7.094,0,0,0-2.086,5.135,7.2,7.2,0,0,0,2.888,5.884,3.8,3.8,0,0,1,1.177,2.782q0,3.37-3.156,3.637a10.87,10.87,0,0,0-9.521,10.8,10.721,10.721,0,0,0,4.975,9.2q3.583,1.391,3.584,4.172,0,3.583-3.584,3.851a27.532,27.532,0,0,0-11.87,10,26.4,26.4,0,0,0-4.6,15.14,25.076,25.076,0,0,0,1.123,7.542h26.26" fill="url(#linear-gradient)"/>
    </g>
  </g>
</svg>
