<svg xmlns="http://www.w3.org/2000/svg" xmlns:xlink="http://www.w3.org/1999/xlink" width="98.95" height="91.606" viewBox="0 0 98.95 91.606">
  <defs>
    <linearGradient id="linear-gradient" x1="0.5" x2="0.5" y2="1" gradientUnits="objectBoundingBox">
      <stop offset="0" stop-color="#fff"/>
      <stop offset="1" stop-color="#acacac"/>
    </linearGradient>
    <linearGradient id="linear-gradient-3" x1="0.5" x2="0.5" y2="1" gradientUnits="objectBoundingBox">
      <stop offset="0" stop-color="#fff"/>
      <stop offset="1" stop-color="#aaa"/>
    </linearGradient>
  </defs>
  <g id="wq" transform="translate(-331.008 -477.324)">
    <g id="Group_23" data-name="Group 23" transform="translate(-170.517 274.228)">
      <path id="Path_150" data-name="Path 150" d="M551,217.7a7.065,7.065,0,0,1-5.189-2.14,7.43,7.43,0,0,1,0-10.324,7.3,7.3,0,0,1,10.324,0,7.172,7.172,0,0,1,0,10.324A7,7,0,0,1,551,217.7"/>
      <path id="Path_151" data-name="Path 151" d="M583.9,289.3q-2.621,2.3-11.77,3.851a127.233,127.233,0,0,1-21.08,1.551,125.382,125.382,0,0,1-21.34-1.605q-9.2-1.605-11.61-4.012l3.37-12.84-1.5-8.4-4.707-8.184-4.547-33.27,2.621-1.016L528,250.087l.321-29.42,3.637-.642,11.18,29.58,5.991-31.83h3.691l5.991,31.72,11.07-29.47,3.691.642.321,29.42,14.71-24.77,2.514,1.177-4.44,33.11-4.761,8.184-1.5,8.505,3.477,13"/>
      <path id="Path_152" data-name="Path 152" d="M551,214q3.583,0,3.584-3.584,0-3.529-3.584-3.53-3.531,0-3.53,3.53Q547.47,214,551,214" fill="#fff"/>
      <path id="Path_153" data-name="Path 153" d="M528.5,220.4a7.159,7.159,0,0,1-5.189-2.086A7.43,7.43,0,1,1,528.5,220.4"/>
      <path id="Path_154" data-name="Path 154" d="M578.2,267.9q-10.324-2.621-27.01-2.621-17.115,0-27.33,2.675l.8,5.135q10.431-2.46,26.53-2.461,15.99,0,26.1,2.407l.909-5.135" fill="url(#linear-gradient)"/>
      <path id="Path_155" data-name="Path 155" d="M579.5,264.6l3.477-6.151a14.128,14.128,0,0,1-5.242,1.016,13.5,13.5,0,0,1-11.45-5.83,10.92,10.92,0,0,1-7.168,2.675,9.752,9.752,0,0,1-8.184-4.012,10.715,10.715,0,0,1-8.184,3.744,10.911,10.911,0,0,1-7.061-2.621,14.1,14.1,0,0,1-11.61,5.724,15.109,15.109,0,0,1-5.4-1.016l3.744,6.419q10.377-3,28.51-2.995,18.45,0,28.56,3.049" fill="url(#linear-gradient)"/>
      <path id="Path_156" data-name="Path 156" d="M573.5,220.4a7.3,7.3,0,0,1-5.189-12.41,7.319,7.319,0,1,1,10.378,10.324A7.158,7.158,0,0,1,573.5,220.4"/>
      <path id="Path_157" data-name="Path 157" d="M555.6,251.9l-4.547-26.16-4.547,25.84q.16-.107.749-.535A3.981,3.981,0,0,1,551,248.638a3.352,3.352,0,0,1,3.53,2.407,9.077,9.077,0,0,0,1.07.856" fill="url(#linear-gradient-3)"/>
      <path id="Path_158" data-name="Path 158" d="M508.8,226.3a7.3,7.3,0,0,1-5.189-12.41,7.329,7.329,0,0,1,12.518,5.135,7.066,7.066,0,0,1-2.14,5.189A7.157,7.157,0,0,1,508.8,226.3"/>
      <path id="Path_159" data-name="Path 159" d="M570.4,252.9V228.13l-8.826,24.28a5.647,5.647,0,0,0,1.712-.963,3.5,3.5,0,0,1,2.888-1.337,3.963,3.963,0,0,1,3.423,1.872q.16.214.374.481l.428.428" fill="url(#linear-gradient-3)"/>
      <path id="Path_160" data-name="Path 160" d="M593.2,226.3a7.159,7.159,0,0,1-5.189-2.086,7.3,7.3,0,0,1,0-10.324,7.3,7.3,0,0,1,12.464,5.135A7.215,7.215,0,0,1,593.2,226.3"/>
      <path id="Path_161" data-name="Path 161" d="M540.3,252.1l-8.772-24.02v24.45a5.332,5.332,0,0,1,.481-.535,3.644,3.644,0,0,1,3.53-2.247,3.965,3.965,0,0,1,3.316,1.712l1.444.642" fill="url(#linear-gradient-3)"/>
      <path id="Path_162" data-name="Path 162" d="M526.8,255.1l-11.5-19.85,2.942,18.08a10.372,10.372,0,0,0,5.937,2.14,11,11,0,0,0,2.621-.374" fill="url(#linear-gradient-3)"/>
      <path id="Path_163" data-name="Path 163" d="M575.1,255.4a9.336,9.336,0,0,0,2.728.374,10.263,10.263,0,0,0,6.1-2.033l2.942-18.51L575.1,255.4" fill="url(#linear-gradient-3)"/>
      <path id="Path_164" data-name="Path 164" d="M578.3,282.5l-1.6-6.044a144.177,144.177,0,0,0-51.3,0l-1.658,6.1q9.949-3,27.33-2.995,16.95,0,27.23,2.942" fill="url(#linear-gradient-3)"/>
      <path id="Path_165" data-name="Path 165" d="M579.6,287.4q-9.789-4.065-28.4-4.065-18.99,0-28.72,4.172,9.362,3.691,28.56,3.691a127.439,127.439,0,0,0,16.8-1.016,46.818,46.818,0,0,0,11.77-2.782" fill="url(#linear-gradient-3)"/>
      <path id="Path_166" data-name="Path 166" d="M528.5,216.7q3.531,0,3.53-3.53t-3.53-3.53q-3.583,0-3.584,3.53t3.584,3.53" fill="#fff"/>
      <path id="Path_167" data-name="Path 167" d="M573.5,216.7q3.583,0,3.584-3.53t-3.584-3.53q-3.531,0-3.53,3.53t3.53,3.53" fill="#fff"/>
      <path id="Path_168" data-name="Path 168" d="M508.8,222.6q3.584,0,3.584-3.53,0-3.584-3.584-3.584-3.531,0-3.53,3.584,0,3.531,3.53,3.53" fill="#fff"/>
      <path id="Path_169" data-name="Path 169" d="M593.2,222.6q3.53,0,3.53-3.53,0-3.584-3.53-3.584-3.583,0-3.584,3.584,0,3.531,3.584,3.53" fill="#fff"/>
    </g>
  </g>
</svg>
