<svg xmlns="http://www.w3.org/2000/svg" width="637.452" height="637.649" viewBox="0 0 637.452 637.649">
  <defs>
    <style>
      .cls-1 {
        opacity: 0.996;
      }

      .cls-2 {
        fill: #a97c50;
      }

      .cls-2, .cls-3 {
        stroke-miterlimit: 10;
      }

      .cls-3 {
        fill: #f2e6da;
      }

      .cls-4, .cls-5 {
        stroke: none;
      }

      .cls-5 {
        fill: #231f20;
      }
    </style>
  </defs>
  <g id="board_art" data-name="board art" class="cls-1">
    <g id="Layer_1" data-name="Layer 1">
      <g id="Rectangle_1" data-name="Rectangle 1" class="cls-2">
        <path class="cls-4" d="M.393.393H79.974V80H.393Z"/>
        <path class="cls-5" d="M 80.36714935302734 80.39166259765625 L 79.97429656982422 80.39166259765625 L 0.3929084837436676 80.39166259765625 L 5.453568155644462e-05 80.39166259765625 L 5.453568155644462e-05 79.99880981445312 L 5.453568155644462e-05 0.3928585052490234 L 5.453568155644462e-05 4.542688657238614e-06 L 0.3929084837436676 4.542688657238614e-06 L 79.97429656982422 4.542688657238614e-06 L 80.36714935302734 4.542688657238614e-06 L 80.36714935302734 0.3928585052490234 L 80.36714935302734 79.99880981445312 L 80.36714935302734 80.39166259765625 Z M 0.7857624888420105 79.60595703125 L 79.58143615722656 79.60595703125 L 79.58143615722656 0.7857124209403992 L 0.7857624888420105 0.7857124209403992 L 0.7857624888420105 79.60595703125 Z"/>
      </g>
      <g id="Rectangle_2" data-name="Rectangle 2" class="cls-3" transform="translate(79.581)">
        <path class="cls-4" d="M.393.393H79.974V80H.393Z"/>
        <path class="cls-5" d="M 80.36705017089844 80.39166259765625 L 79.97419738769531 80.39166259765625 L 0.3928126096725464 80.39166259765625 L -4.137593350606039e-05 80.39166259765625 L -4.137593350606039e-05 79.99880981445312 L -4.137593350606039e-05 0.3928585052490234 L -4.137593350606039e-05 4.542688657238614e-06 L 0.3928126096725464 4.542688657238614e-06 L 79.97419738769531 4.542688657238614e-06 L 80.36705017089844 4.542688657238614e-06 L 80.36705017089844 0.3928585052490234 L 80.36705017089844 79.99880981445312 L 80.36705017089844 80.39166259765625 Z M 0.7856665253639221 79.60595703125 L 79.58134460449219 79.60595703125 L 79.58134460449219 0.7857124209403992 L 0.7856665253639221 0.7857124209403992 L 0.7856665253639221 79.60595703125 Z"/>
      </g>
      <g id="Rectangle_3" data-name="Rectangle 3" class="cls-2" transform="translate(159.163)">
        <path class="cls-4" d="M.393.393H79.974V80H.393Z"/>
        <path class="cls-5" d="M 80.36705017089844 80.39166259765625 L 79.97419738769531 80.39166259765625 L 0.3928126096725464 80.39166259765625 L -4.137593350606039e-05 80.39166259765625 L -4.137593350606039e-05 79.99880981445312 L -4.137593350606039e-05 0.3928585052490234 L -4.137593350606039e-05 4.542688657238614e-06 L 0.3928126096725464 4.542688657238614e-06 L 79.97419738769531 4.542688657238614e-06 L 80.36705017089844 4.542688657238614e-06 L 80.36705017089844 0.3928585052490234 L 80.36705017089844 79.99880981445312 L 80.36705017089844 80.39166259765625 Z M 0.7856665253639221 79.60595703125 L 79.58134460449219 79.60595703125 L 79.58134460449219 0.7857124209403992 L 0.7856665253639221 0.7857124209403992 L 0.7856665253639221 79.60595703125 Z"/>
      </g>
      <g id="Rectangle_4" data-name="Rectangle 4" class="cls-3" transform="translate(238.76)">
        <path class="cls-4" d="M.393.393H79.974V80H.393Z"/>
        <path class="cls-5" d="M 80.36709594726562 80.39166259765625 L 79.9742431640625 80.39166259765625 L 0.3928605318069458 80.39166259765625 L 6.579874025192112e-06 80.39166259765625 L 6.579874025192112e-06 79.99880981445312 L 6.579874025192112e-06 0.3928585052490234 L 6.579874025192112e-06 4.542688657238614e-06 L 0.3928605318069458 4.542688657238614e-06 L 79.9742431640625 4.542688657238614e-06 L 80.36709594726562 4.542688657238614e-06 L 80.36709594726562 0.3928585052490234 L 80.36709594726562 79.99880981445312 L 80.36709594726562 80.39166259765625 Z M 0.7857145071029663 79.60595703125 L 79.58139038085938 79.60595703125 L 79.58139038085938 0.7857124209403992 L 0.7857145071029663 0.7857124209403992 L 0.7857145071029663 79.60595703125 Z"/>
      </g>
      <g id="Rectangle_5" data-name="Rectangle 5" class="cls-2" transform="translate(318.341)">
        <path class="cls-4" d="M.393.393H79.974V80H.393Z"/>
        <path class="cls-5" d="M 80.36709594726562 80.39166259765625 L 79.9742431640625 80.39166259765625 L 0.3928605318069458 80.39166259765625 L 6.579874025192112e-06 80.39166259765625 L 6.579874025192112e-06 79.99880981445312 L 6.579874025192112e-06 0.3928585052490234 L 6.579874025192112e-06 4.542688657238614e-06 L 0.3928605318069458 4.542688657238614e-06 L 79.9742431640625 4.542688657238614e-06 L 80.36709594726562 4.542688657238614e-06 L 80.36709594726562 0.3928585052490234 L 80.36709594726562 79.99880981445312 L 80.36709594726562 80.39166259765625 Z M 0.7857145071029663 79.60595703125 L 79.58139038085938 79.60595703125 L 79.58139038085938 0.7857124209403992 L 0.7857145071029663 0.7857124209403992 L 0.7857145071029663 79.60595703125 Z"/>
      </g>
      <g id="Rectangle_6" data-name="Rectangle 6" class="cls-3" transform="translate(397.922)">
        <path class="cls-4" d="M.393.393H79.974V80H.393Z"/>
        <path class="cls-5" d="M 80.36709594726562 80.39166259765625 L 79.9742431640625 80.39166259765625 L 0.3928605318069458 80.39166259765625 L 6.579874025192112e-06 80.39166259765625 L 6.579874025192112e-06 79.99880981445312 L 6.579874025192112e-06 0.3928585052490234 L 6.579874025192112e-06 4.542688657238614e-06 L 0.3928605318069458 4.542688657238614e-06 L 79.9742431640625 4.542688657238614e-06 L 80.36709594726562 4.542688657238614e-06 L 80.36709594726562 0.3928585052490234 L 80.36709594726562 79.99880981445312 L 80.36709594726562 80.39166259765625 Z M 0.7857145071029663 79.60595703125 L 79.58139038085938 79.60595703125 L 79.58139038085938 0.7857124209403992 L 0.7857145071029663 0.7857124209403992 L 0.7857145071029663 79.60595703125 Z"/>
      </g>
      <g id="Rectangle_7" data-name="Rectangle 7" class="cls-2" transform="translate(477.504)">
        <path class="cls-4" d="M.393.393H79.974V80H.393Z"/>
        <path class="cls-5" d="M 80.36709594726562 80.39166259765625 L 79.9742431640625 80.39166259765625 L 0.3928605318069458 80.39166259765625 L 6.579874025192112e-06 80.39166259765625 L 6.579874025192112e-06 79.99880981445312 L 6.579874025192112e-06 0.3928585052490234 L 6.579874025192112e-06 4.542688657238614e-06 L 0.3928605318069458 4.542688657238614e-06 L 79.9742431640625 4.542688657238614e-06 L 80.36709594726562 4.542688657238614e-06 L 80.36709594726562 0.3928585052490234 L 80.36709594726562 79.99880981445312 L 80.36709594726562 80.39166259765625 Z M 0.7857145071029663 79.60595703125 L 79.58139038085938 79.60595703125 L 79.58139038085938 0.7857124209403992 L 0.7857145071029663 0.7857124209403992 L 0.7857145071029663 79.60595703125 Z"/>
      </g>
      <g id="Rectangle_8" data-name="Rectangle 8" class="cls-3" transform="translate(557.085)">
        <path class="cls-4" d="M.393.393H79.974V80H.393Z"/>
        <path class="cls-5" d="M 80.36719512939453 80.39166259765625 L 79.97434234619141 80.39166259765625 L 0.3929564356803894 80.39166259765625 L 0.0001024914890876971 80.39166259765625 L 0.0001024914890876971 79.99880981445312 L 0.0001024914890876971 0.3928585052490234 L 0.0001024914890876971 4.542688657238614e-06 L 0.3929564356803894 4.542688657238614e-06 L 79.97434234619141 4.542688657238614e-06 L 80.36719512939453 4.542688657238614e-06 L 80.36719512939453 0.3928585052490234 L 80.36719512939453 79.99880981445312 L 80.36719512939453 80.39166259765625 Z M 0.7858104109764099 79.60595703125 L 79.58148956298828 79.60595703125 L 79.58148956298828 0.7857124209403992 L 0.7858104109764099 0.7857124209403992 L 0.7858104109764099 79.60595703125 Z"/>
      </g>
      <g id="Rectangle_9" data-name="Rectangle 9" class="cls-2" transform="translate(557.085 79.606)">
        <path class="cls-4" d="M.393.393H79.974V80H.393Z"/>
        <path class="cls-5" d="M 80.36719512939453 80.39166259765625 L 79.97434234619141 80.39166259765625 L 0.3929564356803894 80.39166259765625 L 0.0001024914890876971 80.39166259765625 L 0.0001024914890876971 79.99880218505859 L 0.0001024914890876971 0.3928525149822235 L 0.0001024914890876971 -1.451787170481111e-06 L 0.3929564356803894 -1.451787170481111e-06 L 79.97434234619141 -1.451787170481111e-06 L 80.36719512939453 -1.451787170481111e-06 L 80.36719512939453 0.3928525149822235 L 80.36719512939453 79.99880218505859 L 80.36719512939453 80.39166259765625 Z M 0.7858104109764099 79.60594940185547 L 79.58148956298828 79.60594940185547 L 79.58148956298828 0.7857065200805664 L 0.7858104109764099 0.7857065200805664 L 0.7858104109764099 79.60594940185547 Z"/>
      </g>
      <g id="Rectangle_10" data-name="Rectangle 10" class="cls-3" transform="translate(477.504 79.606)">
        <path class="cls-4" d="M.393.393H79.974V80H.393Z"/>
        <path class="cls-5" d="M 80.36709594726562 80.39166259765625 L 79.9742431640625 80.39166259765625 L 0.3928605318069458 80.39166259765625 L 6.579874025192112e-06 80.39166259765625 L 6.579874025192112e-06 79.99880218505859 L 6.579874025192112e-06 0.3928525149822235 L 6.579874025192112e-06 -1.451787170481111e-06 L 0.3928605318069458 -1.451787170481111e-06 L 79.9742431640625 -1.451787170481111e-06 L 80.36709594726562 -1.451787170481111e-06 L 80.36709594726562 0.3928525149822235 L 80.36709594726562 79.99880218505859 L 80.36709594726562 80.39166259765625 Z M 0.7857145071029663 79.60594940185547 L 79.58139038085938 79.60594940185547 L 79.58139038085938 0.7857065200805664 L 0.7857145071029663 0.7857065200805664 L 0.7857145071029663 79.60594940185547 Z"/>
      </g>
      <g id="Rectangle_11" data-name="Rectangle 11" class="cls-2" transform="translate(397.922 79.606)">
        <path class="cls-4" d="M.393.393H79.974V80H.393Z"/>
        <path class="cls-5" d="M 80.36709594726562 80.39166259765625 L 79.9742431640625 80.39166259765625 L 0.3928605318069458 80.39166259765625 L 6.579874025192112e-06 80.39166259765625 L 6.579874025192112e-06 79.99880218505859 L 6.579874025192112e-06 0.3928525149822235 L 6.579874025192112e-06 -1.451787170481111e-06 L 0.3928605318069458 -1.451787170481111e-06 L 79.9742431640625 -1.451787170481111e-06 L 80.36709594726562 -1.451787170481111e-06 L 80.36709594726562 0.3928525149822235 L 80.36709594726562 79.99880218505859 L 80.36709594726562 80.39166259765625 Z M 0.7857145071029663 79.60594940185547 L 79.58139038085938 79.60594940185547 L 79.58139038085938 0.7857065200805664 L 0.7857145071029663 0.7857065200805664 L 0.7857145071029663 79.60594940185547 Z"/>
      </g>
      <g id="Rectangle_12" data-name="Rectangle 12" class="cls-3" transform="translate(318.341 79.606)">
        <path class="cls-4" d="M.393.393H79.974V80H.393Z"/>
        <path class="cls-5" d="M 80.36709594726562 80.39166259765625 L 79.9742431640625 80.39166259765625 L 0.3928605318069458 80.39166259765625 L 6.579874025192112e-06 80.39166259765625 L 6.579874025192112e-06 79.99880218505859 L 6.579874025192112e-06 0.3928525149822235 L 6.579874025192112e-06 -1.451787170481111e-06 L 0.3928605318069458 -1.451787170481111e-06 L 79.9742431640625 -1.451787170481111e-06 L 80.36709594726562 -1.451787170481111e-06 L 80.36709594726562 0.3928525149822235 L 80.36709594726562 79.99880218505859 L 80.36709594726562 80.39166259765625 Z M 0.7857145071029663 79.60594940185547 L 79.58139038085938 79.60594940185547 L 79.58139038085938 0.7857065200805664 L 0.7857145071029663 0.7857065200805664 L 0.7857145071029663 79.60594940185547 Z"/>
      </g>
      <g id="Rectangle_13" data-name="Rectangle 13" class="cls-2" transform="translate(238.76 79.606)">
        <path class="cls-4" d="M.393.393H79.974V80H.393Z"/>
        <path class="cls-5" d="M 80.36709594726562 80.39166259765625 L 79.9742431640625 80.39166259765625 L 0.3928605318069458 80.39166259765625 L 6.579874025192112e-06 80.39166259765625 L 6.579874025192112e-06 79.99880218505859 L 6.579874025192112e-06 0.3928525149822235 L 6.579874025192112e-06 -1.451787170481111e-06 L 0.3928605318069458 -1.451787170481111e-06 L 79.9742431640625 -1.451787170481111e-06 L 80.36709594726562 -1.451787170481111e-06 L 80.36709594726562 0.3928525149822235 L 80.36709594726562 79.99880218505859 L 80.36709594726562 80.39166259765625 Z M 0.7857145071029663 79.60594940185547 L 79.58139038085938 79.60594940185547 L 79.58139038085938 0.7857065200805664 L 0.7857145071029663 0.7857065200805664 L 0.7857145071029663 79.60594940185547 Z"/>
      </g>
      <g id="Rectangle_14" data-name="Rectangle 14" class="cls-3" transform="translate(159.163 79.606)">
        <path class="cls-4" d="M.393.393H79.974V80H.393Z"/>
        <path class="cls-5" d="M 80.36705017089844 80.39166259765625 L 79.97419738769531 80.39166259765625 L 0.3928126096725464 80.39166259765625 L -4.137593350606039e-05 80.39166259765625 L -4.137593350606039e-05 79.99880218505859 L -4.137593350606039e-05 0.3928525149822235 L -4.137593350606039e-05 -1.451787170481111e-06 L 0.3928126096725464 -1.451787170481111e-06 L 79.97419738769531 -1.451787170481111e-06 L 80.36705017089844 -1.451787170481111e-06 L 80.36705017089844 0.3928525149822235 L 80.36705017089844 79.99880218505859 L 80.36705017089844 80.39166259765625 Z M 0.7856665253639221 79.60594940185547 L 79.58134460449219 79.60594940185547 L 79.58134460449219 0.7857065200805664 L 0.7856665253639221 0.7857065200805664 L 0.7856665253639221 79.60594940185547 Z"/>
      </g>
      <g id="Rectangle_15" data-name="Rectangle 15" class="cls-2" transform="translate(79.581 79.606)">
        <path class="cls-4" d="M.393.393H79.974V80H.393Z"/>
        <path class="cls-5" d="M 80.36705017089844 80.39166259765625 L 79.97419738769531 80.39166259765625 L 0.3928126096725464 80.39166259765625 L -4.137593350606039e-05 80.39166259765625 L -4.137593350606039e-05 79.99880218505859 L -4.137593350606039e-05 0.3928525149822235 L -4.137593350606039e-05 -1.451787170481111e-06 L 0.3928126096725464 -1.451787170481111e-06 L 79.97419738769531 -1.451787170481111e-06 L 80.36705017089844 -1.451787170481111e-06 L 80.36705017089844 0.3928525149822235 L 80.36705017089844 79.99880218505859 L 80.36705017089844 80.39166259765625 Z M 0.7856665253639221 79.60594940185547 L 79.58134460449219 79.60594940185547 L 79.58134460449219 0.7857065200805664 L 0.7856665253639221 0.7857065200805664 L 0.7856665253639221 79.60594940185547 Z"/>
      </g>
      <g id="Rectangle_16" data-name="Rectangle 16" class="cls-3" transform="translate(0 79.606)">
        <path class="cls-4" d="M.393.393H79.974V80H.393Z"/>
        <path class="cls-5" d="M 80.36714935302734 80.39166259765625 L 79.97429656982422 80.39166259765625 L 0.3929084837436676 80.39166259765625 L 5.453568155644462e-05 80.39166259765625 L 5.453568155644462e-05 79.99880218505859 L 5.453568155644462e-05 0.3928525149822235 L 5.453568155644462e-05 -1.451787170481111e-06 L 0.3929084837436676 -1.451787170481111e-06 L 79.97429656982422 -1.451787170481111e-06 L 80.36714935302734 -1.451787170481111e-06 L 80.36714935302734 0.3928525149822235 L 80.36714935302734 79.99880218505859 L 80.36714935302734 80.39166259765625 Z M 0.7857624888420105 79.60594940185547 L 79.58143615722656 79.60594940185547 L 79.58143615722656 0.7857065200805664 L 0.7857624888420105 0.7857065200805664 L 0.7857624888420105 79.60594940185547 Z"/>
      </g>
      <g id="Rectangle_17" data-name="Rectangle 17" class="cls-2" transform="translate(0 159.212)">
        <path class="cls-4" d="M.393.393H79.974V80H.393Z"/>
        <path class="cls-5" d="M 80.36714935302734 80.39166259765625 L 79.97429656982422 80.39166259765625 L 0.3929084837436676 80.39166259765625 L 5.453568155644462e-05 80.39166259765625 L 5.453568155644462e-05 79.99880218505859 L 5.453568155644462e-05 0.3928525149822235 L 5.453568155644462e-05 -1.451787170481111e-06 L 0.3929084837436676 -1.451787170481111e-06 L 79.97429656982422 -1.451787170481111e-06 L 80.36714935302734 -1.451787170481111e-06 L 80.36714935302734 0.3928525149822235 L 80.36714935302734 79.99880218505859 L 80.36714935302734 80.39166259765625 Z M 0.7857624888420105 79.60594940185547 L 79.58143615722656 79.60594940185547 L 79.58143615722656 0.7857065200805664 L 0.7857624888420105 0.7857065200805664 L 0.7857624888420105 79.60594940185547 Z"/>
      </g>
      <g id="Rectangle_18" data-name="Rectangle 18" class="cls-3" transform="translate(79.581 159.212)">
        <path class="cls-4" d="M.393.393H79.974V80H.393Z"/>
        <path class="cls-5" d="M 80.36705017089844 80.39166259765625 L 79.97419738769531 80.39166259765625 L 0.3928126096725464 80.39166259765625 L -4.137593350606039e-05 80.39166259765625 L -4.137593350606039e-05 79.99880218505859 L -4.137593350606039e-05 0.3928525149822235 L -4.137593350606039e-05 -1.451787170481111e-06 L 0.3928126096725464 -1.451787170481111e-06 L 79.97419738769531 -1.451787170481111e-06 L 80.36705017089844 -1.451787170481111e-06 L 80.36705017089844 0.3928525149822235 L 80.36705017089844 79.99880218505859 L 80.36705017089844 80.39166259765625 Z M 0.7856665253639221 79.60594940185547 L 79.58134460449219 79.60594940185547 L 79.58134460449219 0.7857065200805664 L 0.7856665253639221 0.7857065200805664 L 0.7856665253639221 79.60594940185547 Z"/>
      </g>
      <g id="Rectangle_19" data-name="Rectangle 19" class="cls-2" transform="translate(159.163 159.212)">
        <path class="cls-4" d="M.393.393H79.974V80H.393Z"/>
        <path class="cls-5" d="M 80.36705017089844 80.39166259765625 L 79.97419738769531 80.39166259765625 L 0.3928126096725464 80.39166259765625 L -4.137593350606039e-05 80.39166259765625 L -4.137593350606039e-05 79.99880218505859 L -4.137593350606039e-05 0.3928525149822235 L -4.137593350606039e-05 -1.451787170481111e-06 L 0.3928126096725464 -1.451787170481111e-06 L 79.97419738769531 -1.451787170481111e-06 L 80.36705017089844 -1.451787170481111e-06 L 80.36705017089844 0.3928525149822235 L 80.36705017089844 79.99880218505859 L 80.36705017089844 80.39166259765625 Z M 0.7856665253639221 79.60594940185547 L 79.58134460449219 79.60594940185547 L 79.58134460449219 0.7857065200805664 L 0.7856665253639221 0.7857065200805664 L 0.7856665253639221 79.60594940185547 Z"/>
      </g>
      <g id="Rectangle_20" data-name="Rectangle 20" class="cls-3" transform="translate(238.76 159.212)">
        <path class="cls-4" d="M.393.393H79.974V80H.393Z"/>
        <path class="cls-5" d="M 80.36709594726562 80.39166259765625 L 79.9742431640625 80.39166259765625 L 0.3928605318069458 80.39166259765625 L 6.579874025192112e-06 80.39166259765625 L 6.579874025192112e-06 79.99880218505859 L 6.579874025192112e-06 0.3928525149822235 L 6.579874025192112e-06 -1.451787170481111e-06 L 0.3928605318069458 -1.451787170481111e-06 L 79.9742431640625 -1.451787170481111e-06 L 80.36709594726562 -1.451787170481111e-06 L 80.36709594726562 0.3928525149822235 L 80.36709594726562 79.99880218505859 L 80.36709594726562 80.39166259765625 Z M 0.7857145071029663 79.60594940185547 L 79.58139038085938 79.60594940185547 L 79.58139038085938 0.7857065200805664 L 0.7857145071029663 0.7857065200805664 L 0.7857145071029663 79.60594940185547 Z"/>
      </g>
      <g id="Rectangle_21" data-name="Rectangle 21" class="cls-2" transform="translate(318.341 159.212)">
        <path class="cls-4" d="M.393.393H79.974V80H.393Z"/>
        <path class="cls-5" d="M 80.36709594726562 80.39166259765625 L 79.9742431640625 80.39166259765625 L 0.3928605318069458 80.39166259765625 L 6.579874025192112e-06 80.39166259765625 L 6.579874025192112e-06 79.99880218505859 L 6.579874025192112e-06 0.3928525149822235 L 6.579874025192112e-06 -1.451787170481111e-06 L 0.3928605318069458 -1.451787170481111e-06 L 79.9742431640625 -1.451787170481111e-06 L 80.36709594726562 -1.451787170481111e-06 L 80.36709594726562 0.3928525149822235 L 80.36709594726562 79.99880218505859 L 80.36709594726562 80.39166259765625 Z M 0.7857145071029663 79.60594940185547 L 79.58139038085938 79.60594940185547 L 79.58139038085938 0.7857065200805664 L 0.7857145071029663 0.7857065200805664 L 0.7857145071029663 79.60594940185547 Z"/>
      </g>
      <g id="Rectangle_22" data-name="Rectangle 22" class="cls-3" transform="translate(397.922 159.212)">
        <path class="cls-4" d="M.393.393H79.974V80H.393Z"/>
        <path class="cls-5" d="M 80.36709594726562 80.39166259765625 L 79.9742431640625 80.39166259765625 L 0.3928605318069458 80.39166259765625 L 6.579874025192112e-06 80.39166259765625 L 6.579874025192112e-06 79.99880218505859 L 6.579874025192112e-06 0.3928525149822235 L 6.579874025192112e-06 -1.451787170481111e-06 L 0.3928605318069458 -1.451787170481111e-06 L 79.9742431640625 -1.451787170481111e-06 L 80.36709594726562 -1.451787170481111e-06 L 80.36709594726562 0.3928525149822235 L 80.36709594726562 79.99880218505859 L 80.36709594726562 80.39166259765625 Z M 0.7857145071029663 79.60594940185547 L 79.58139038085938 79.60594940185547 L 79.58139038085938 0.7857065200805664 L 0.7857145071029663 0.7857065200805664 L 0.7857145071029663 79.60594940185547 Z"/>
      </g>
      <g id="Rectangle_23" data-name="Rectangle 23" class="cls-2" transform="translate(477.504 159.212)">
        <path class="cls-4" d="M.393.393H79.974V80H.393Z"/>
        <path class="cls-5" d="M 80.36709594726562 80.39166259765625 L 79.9742431640625 80.39166259765625 L 0.3928605318069458 80.39166259765625 L 6.579874025192112e-06 80.39166259765625 L 6.579874025192112e-06 79.99880218505859 L 6.579874025192112e-06 0.3928525149822235 L 6.579874025192112e-06 -1.451787170481111e-06 L 0.3928605318069458 -1.451787170481111e-06 L 79.9742431640625 -1.451787170481111e-06 L 80.36709594726562 -1.451787170481111e-06 L 80.36709594726562 0.3928525149822235 L 80.36709594726562 79.99880218505859 L 80.36709594726562 80.39166259765625 Z M 0.7857145071029663 79.60594940185547 L 79.58139038085938 79.60594940185547 L 79.58139038085938 0.7857065200805664 L 0.7857145071029663 0.7857065200805664 L 0.7857145071029663 79.60594940185547 Z"/>
      </g>
      <g id="Rectangle_24" data-name="Rectangle 24" class="cls-3" transform="translate(557.085 159.212)">
        <path class="cls-4" d="M.393.393H79.974V80H.393Z"/>
        <path class="cls-5" d="M 80.36719512939453 80.39166259765625 L 79.97434234619141 80.39166259765625 L 0.3929564356803894 80.39166259765625 L 0.0001024914890876971 80.39166259765625 L 0.0001024914890876971 79.99880218505859 L 0.0001024914890876971 0.3928525149822235 L 0.0001024914890876971 -1.451787170481111e-06 L 0.3929564356803894 -1.451787170481111e-06 L 79.97434234619141 -1.451787170481111e-06 L 80.36719512939453 -1.451787170481111e-06 L 80.36719512939453 0.3928525149822235 L 80.36719512939453 79.99880218505859 L 80.36719512939453 80.39166259765625 Z M 0.7858104109764099 79.60594940185547 L 79.58148956298828 79.60594940185547 L 79.58148956298828 0.7857065200805664 L 0.7858104109764099 0.7857065200805664 L 0.7858104109764099 79.60594940185547 Z"/>
      </g>
      <g id="Rectangle_25" data-name="Rectangle 25" class="cls-2" transform="translate(557.085 238.833)">
        <path class="cls-4" d="M.393.393H79.974V80H.393Z"/>
        <path class="cls-5" d="M 80.36719512939453 80.39166259765625 L 79.97434234619141 80.39166259765625 L 0.3929564356803894 80.39166259765625 L 0.0001024914890876971 80.39166259765625 L 0.0001024914890876971 79.99880218505859 L 0.0001024914890876971 0.3928525149822235 L 0.0001024914890876971 -1.451787170481111e-06 L 0.3929564356803894 -1.451787170481111e-06 L 79.97434234619141 -1.451787170481111e-06 L 80.36719512939453 -1.451787170481111e-06 L 80.36719512939453 0.3928525149822235 L 80.36719512939453 79.99880218505859 L 80.36719512939453 80.39166259765625 Z M 0.7858104109764099 79.60594940185547 L 79.58148956298828 79.60594940185547 L 79.58148956298828 0.7857065200805664 L 0.7858104109764099 0.7857065200805664 L 0.7858104109764099 79.60594940185547 Z"/>
      </g>
      <g id="Rectangle_26" data-name="Rectangle 26" class="cls-3" transform="translate(477.504 238.833)">
        <path class="cls-4" d="M.393.393H79.974V80H.393Z"/>
        <path class="cls-5" d="M 80.36709594726562 80.39166259765625 L 79.9742431640625 80.39166259765625 L 0.3928605318069458 80.39166259765625 L 6.579874025192112e-06 80.39166259765625 L 6.579874025192112e-06 79.99880218505859 L 6.579874025192112e-06 0.3928525149822235 L 6.579874025192112e-06 -1.451787170481111e-06 L 0.3928605318069458 -1.451787170481111e-06 L 79.9742431640625 -1.451787170481111e-06 L 80.36709594726562 -1.451787170481111e-06 L 80.36709594726562 0.3928525149822235 L 80.36709594726562 79.99880218505859 L 80.36709594726562 80.39166259765625 Z M 0.7857145071029663 79.60594940185547 L 79.58139038085938 79.60594940185547 L 79.58139038085938 0.7857065200805664 L 0.7857145071029663 0.7857065200805664 L 0.7857145071029663 79.60594940185547 Z"/>
      </g>
      <g id="Rectangle_27" data-name="Rectangle 27" class="cls-2" transform="translate(397.922 238.833)">
        <path class="cls-4" d="M.393.393H79.974V80H.393Z"/>
        <path class="cls-5" d="M 80.36709594726562 80.39166259765625 L 79.9742431640625 80.39166259765625 L 0.3928605318069458 80.39166259765625 L 6.579874025192112e-06 80.39166259765625 L 6.579874025192112e-06 79.99880218505859 L 6.579874025192112e-06 0.3928525149822235 L 6.579874025192112e-06 -1.451787170481111e-06 L 0.3928605318069458 -1.451787170481111e-06 L 79.9742431640625 -1.451787170481111e-06 L 80.36709594726562 -1.451787170481111e-06 L 80.36709594726562 0.3928525149822235 L 80.36709594726562 79.99880218505859 L 80.36709594726562 80.39166259765625 Z M 0.7857145071029663 79.60594940185547 L 79.58139038085938 79.60594940185547 L 79.58139038085938 0.7857065200805664 L 0.7857145071029663 0.7857065200805664 L 0.7857145071029663 79.60594940185547 Z"/>
      </g>
      <g id="Rectangle_28" data-name="Rectangle 28" class="cls-3" transform="translate(318.341 238.833)">
        <path class="cls-4" d="M.393.393H79.974V80H.393Z"/>
        <path class="cls-5" d="M 80.36709594726562 80.39166259765625 L 79.9742431640625 80.39166259765625 L 0.3928605318069458 80.39166259765625 L 6.579874025192112e-06 80.39166259765625 L 6.579874025192112e-06 79.99880218505859 L 6.579874025192112e-06 0.3928525149822235 L 6.579874025192112e-06 -1.451787170481111e-06 L 0.3928605318069458 -1.451787170481111e-06 L 79.9742431640625 -1.451787170481111e-06 L 80.36709594726562 -1.451787170481111e-06 L 80.36709594726562 0.3928525149822235 L 80.36709594726562 79.99880218505859 L 80.36709594726562 80.39166259765625 Z M 0.7857145071029663 79.60594940185547 L 79.58139038085938 79.60594940185547 L 79.58139038085938 0.7857065200805664 L 0.7857145071029663 0.7857065200805664 L 0.7857145071029663 79.60594940185547 Z"/>
      </g>
      <g id="Rectangle_29" data-name="Rectangle 29" class="cls-2" transform="translate(238.76 238.833)">
        <path class="cls-4" d="M.393.393H79.974V80H.393Z"/>
        <path class="cls-5" d="M 80.36709594726562 80.39166259765625 L 79.9742431640625 80.39166259765625 L 0.3928605318069458 80.39166259765625 L 6.579874025192112e-06 80.39166259765625 L 6.579874025192112e-06 79.99880218505859 L 6.579874025192112e-06 0.3928525149822235 L 6.579874025192112e-06 -1.451787170481111e-06 L 0.3928605318069458 -1.451787170481111e-06 L 79.9742431640625 -1.451787170481111e-06 L 80.36709594726562 -1.451787170481111e-06 L 80.36709594726562 0.3928525149822235 L 80.36709594726562 79.99880218505859 L 80.36709594726562 80.39166259765625 Z M 0.7857145071029663 79.60594940185547 L 79.58139038085938 79.60594940185547 L 79.58139038085938 0.7857065200805664 L 0.7857145071029663 0.7857065200805664 L 0.7857145071029663 79.60594940185547 Z"/>
      </g>
      <g id="Rectangle_30" data-name="Rectangle 30" class="cls-3" transform="translate(159.163 238.833)">
        <path class="cls-4" d="M.393.393H79.974V80H.393Z"/>
        <path class="cls-5" d="M 80.36705017089844 80.39166259765625 L 79.97419738769531 80.39166259765625 L 0.3928126096725464 80.39166259765625 L -4.137593350606039e-05 80.39166259765625 L -4.137593350606039e-05 79.99880218505859 L -4.137593350606039e-05 0.3928525149822235 L -4.137593350606039e-05 -1.451787170481111e-06 L 0.3928126096725464 -1.451787170481111e-06 L 79.97419738769531 -1.451787170481111e-06 L 80.36705017089844 -1.451787170481111e-06 L 80.36705017089844 0.3928525149822235 L 80.36705017089844 79.99880218505859 L 80.36705017089844 80.39166259765625 Z M 0.7856665253639221 79.60594940185547 L 79.58134460449219 79.60594940185547 L 79.58134460449219 0.7857065200805664 L 0.7856665253639221 0.7857065200805664 L 0.7856665253639221 79.60594940185547 Z"/>
      </g>
      <g id="Rectangle_31" data-name="Rectangle 31" class="cls-2" transform="translate(79.581 238.833)">
        <path class="cls-4" d="M.393.393H79.974V80H.393Z"/>
        <path class="cls-5" d="M 80.36705017089844 80.39166259765625 L 79.97419738769531 80.39166259765625 L 0.3928126096725464 80.39166259765625 L -4.137593350606039e-05 80.39166259765625 L -4.137593350606039e-05 79.99880218505859 L -4.137593350606039e-05 0.3928525149822235 L -4.137593350606039e-05 -1.451787170481111e-06 L 0.3928126096725464 -1.451787170481111e-06 L 79.97419738769531 -1.451787170481111e-06 L 80.36705017089844 -1.451787170481111e-06 L 80.36705017089844 0.3928525149822235 L 80.36705017089844 79.99880218505859 L 80.36705017089844 80.39166259765625 Z M 0.7856665253639221 79.60594940185547 L 79.58134460449219 79.60594940185547 L 79.58134460449219 0.7857065200805664 L 0.7856665253639221 0.7857065200805664 L 0.7856665253639221 79.60594940185547 Z"/>
      </g>
      <g id="Rectangle_32" data-name="Rectangle 32" class="cls-3" transform="translate(0 238.833)">
        <path class="cls-4" d="M.393.393H79.974V80H.393Z"/>
        <path class="cls-5" d="M 80.36714935302734 80.39166259765625 L 79.97429656982422 80.39166259765625 L 0.3929084837436676 80.39166259765625 L 5.453568155644462e-05 80.39166259765625 L 5.453568155644462e-05 79.99880218505859 L 5.453568155644462e-05 0.3928525149822235 L 5.453568155644462e-05 -1.451787170481111e-06 L 0.3929084837436676 -1.451787170481111e-06 L 79.97429656982422 -1.451787170481111e-06 L 80.36714935302734 -1.451787170481111e-06 L 80.36714935302734 0.3928525149822235 L 80.36714935302734 79.99880218505859 L 80.36714935302734 80.39166259765625 Z M 0.7857624888420105 79.60594940185547 L 79.58143615722656 79.60594940185547 L 79.58143615722656 0.7857065200805664 L 0.7857624888420105 0.7857065200805664 L 0.7857624888420105 79.60594940185547 Z"/>
      </g>
      <g id="Rectangle_33" data-name="Rectangle 33" class="cls-2" transform="translate(0 318.439)">
        <path class="cls-4" d="M.393.393H79.974V80H.393Z"/>
        <path class="cls-5" d="M 80.36714935302734 80.39166259765625 L 79.97429656982422 80.39166259765625 L 0.3929084837436676 80.39166259765625 L 5.453568155644462e-05 80.39166259765625 L 5.453568155644462e-05 79.99880218505859 L 5.453568155644462e-05 0.3928525149822235 L 5.453568155644462e-05 -1.451787170481111e-06 L 0.3929084837436676 -1.451787170481111e-06 L 79.97429656982422 -1.451787170481111e-06 L 80.36714935302734 -1.451787170481111e-06 L 80.36714935302734 0.3928525149822235 L 80.36714935302734 79.99880218505859 L 80.36714935302734 80.39166259765625 Z M 0.7857624888420105 79.60594940185547 L 79.58143615722656 79.60594940185547 L 79.58143615722656 0.7857065200805664 L 0.7857624888420105 0.7857065200805664 L 0.7857624888420105 79.60594940185547 Z"/>
      </g>
      <g id="Rectangle_34" data-name="Rectangle 34" class="cls-3" transform="translate(79.581 318.439)">
        <path class="cls-4" d="M.393.393H79.974V80H.393Z"/>
        <path class="cls-5" d="M 80.36705017089844 80.39166259765625 L 79.97419738769531 80.39166259765625 L 0.3928126096725464 80.39166259765625 L -4.137593350606039e-05 80.39166259765625 L -4.137593350606039e-05 79.99880218505859 L -4.137593350606039e-05 0.3928525149822235 L -4.137593350606039e-05 -1.451787170481111e-06 L 0.3928126096725464 -1.451787170481111e-06 L 79.97419738769531 -1.451787170481111e-06 L 80.36705017089844 -1.451787170481111e-06 L 80.36705017089844 0.3928525149822235 L 80.36705017089844 79.99880218505859 L 80.36705017089844 80.39166259765625 Z M 0.7856665253639221 79.60594940185547 L 79.58134460449219 79.60594940185547 L 79.58134460449219 0.7857065200805664 L 0.7856665253639221 0.7857065200805664 L 0.7856665253639221 79.60594940185547 Z"/>
      </g>
      <g id="Rectangle_35" data-name="Rectangle 35" class="cls-2" transform="translate(159.163 318.439)">
        <path class="cls-4" d="M.393.393H79.974V80H.393Z"/>
        <path class="cls-5" d="M 80.36705017089844 80.39166259765625 L 79.97419738769531 80.39166259765625 L 0.3928126096725464 80.39166259765625 L -4.137593350606039e-05 80.39166259765625 L -4.137593350606039e-05 79.99880218505859 L -4.137593350606039e-05 0.3928525149822235 L -4.137593350606039e-05 -1.451787170481111e-06 L 0.3928126096725464 -1.451787170481111e-06 L 79.97419738769531 -1.451787170481111e-06 L 80.36705017089844 -1.451787170481111e-06 L 80.36705017089844 0.3928525149822235 L 80.36705017089844 79.99880218505859 L 80.36705017089844 80.39166259765625 Z M 0.7856665253639221 79.60594940185547 L 79.58134460449219 79.60594940185547 L 79.58134460449219 0.7857065200805664 L 0.7856665253639221 0.7857065200805664 L 0.7856665253639221 79.60594940185547 Z"/>
      </g>
      <g id="Rectangle_36" data-name="Rectangle 36" class="cls-3" transform="translate(238.76 318.439)">
        <path class="cls-4" d="M.393.393H79.974V80H.393Z"/>
        <path class="cls-5" d="M 80.36709594726562 80.39166259765625 L 79.9742431640625 80.39166259765625 L 0.3928605318069458 80.39166259765625 L 6.579874025192112e-06 80.39166259765625 L 6.579874025192112e-06 79.99880218505859 L 6.579874025192112e-06 0.3928525149822235 L 6.579874025192112e-06 -1.451787170481111e-06 L 0.3928605318069458 -1.451787170481111e-06 L 79.9742431640625 -1.451787170481111e-06 L 80.36709594726562 -1.451787170481111e-06 L 80.36709594726562 0.3928525149822235 L 80.36709594726562 79.99880218505859 L 80.36709594726562 80.39166259765625 Z M 0.7857145071029663 79.60594940185547 L 79.58139038085938 79.60594940185547 L 79.58139038085938 0.7857065200805664 L 0.7857145071029663 0.7857065200805664 L 0.7857145071029663 79.60594940185547 Z"/>
      </g>
      <g id="Rectangle_37" data-name="Rectangle 37" class="cls-2" transform="translate(318.341 318.439)">
        <path class="cls-4" d="M.393.393H79.974V80H.393Z"/>
        <path class="cls-5" d="M 80.36709594726562 80.39166259765625 L 79.9742431640625 80.39166259765625 L 0.3928605318069458 80.39166259765625 L 6.579874025192112e-06 80.39166259765625 L 6.579874025192112e-06 79.99880218505859 L 6.579874025192112e-06 0.3928525149822235 L 6.579874025192112e-06 -1.451787170481111e-06 L 0.3928605318069458 -1.451787170481111e-06 L 79.9742431640625 -1.451787170481111e-06 L 80.36709594726562 -1.451787170481111e-06 L 80.36709594726562 0.3928525149822235 L 80.36709594726562 79.99880218505859 L 80.36709594726562 80.39166259765625 Z M 0.7857145071029663 79.60594940185547 L 79.58139038085938 79.60594940185547 L 79.58139038085938 0.7857065200805664 L 0.7857145071029663 0.7857065200805664 L 0.7857145071029663 79.60594940185547 Z"/>
      </g>
      <g id="Rectangle_38" data-name="Rectangle 38" class="cls-3" transform="translate(397.922 318.439)">
        <path class="cls-4" d="M.393.393H79.974V80H.393Z"/>
        <path class="cls-5" d="M 80.36709594726562 80.39166259765625 L 79.9742431640625 80.39166259765625 L 0.3928605318069458 80.39166259765625 L 6.579874025192112e-06 80.39166259765625 L 6.579874025192112e-06 79.99880218505859 L 6.579874025192112e-06 0.3928525149822235 L 6.579874025192112e-06 -1.451787170481111e-06 L 0.3928605318069458 -1.451787170481111e-06 L 79.9742431640625 -1.451787170481111e-06 L 80.36709594726562 -1.451787170481111e-06 L 80.36709594726562 0.3928525149822235 L 80.36709594726562 79.99880218505859 L 80.36709594726562 80.39166259765625 Z M 0.7857145071029663 79.60594940185547 L 79.58139038085938 79.60594940185547 L 79.58139038085938 0.7857065200805664 L 0.7857145071029663 0.7857065200805664 L 0.7857145071029663 79.60594940185547 Z"/>
      </g>
      <g id="Rectangle_39" data-name="Rectangle 39" class="cls-2" transform="translate(477.504 318.439)">
        <path class="cls-4" d="M.393.393H79.974V80H.393Z"/>
        <path class="cls-5" d="M 80.36709594726562 80.39166259765625 L 79.9742431640625 80.39166259765625 L 0.3928605318069458 80.39166259765625 L 6.579874025192112e-06 80.39166259765625 L 6.579874025192112e-06 79.99880218505859 L 6.579874025192112e-06 0.3928525149822235 L 6.579874025192112e-06 -1.451787170481111e-06 L 0.3928605318069458 -1.451787170481111e-06 L 79.9742431640625 -1.451787170481111e-06 L 80.36709594726562 -1.451787170481111e-06 L 80.36709594726562 0.3928525149822235 L 80.36709594726562 79.99880218505859 L 80.36709594726562 80.39166259765625 Z M 0.7857145071029663 79.60594940185547 L 79.58139038085938 79.60594940185547 L 79.58139038085938 0.7857065200805664 L 0.7857145071029663 0.7857065200805664 L 0.7857145071029663 79.60594940185547 Z"/>
      </g>
      <g id="Rectangle_40" data-name="Rectangle 40" class="cls-3" transform="translate(557.085 318.439)">
        <path class="cls-4" d="M.393.393H79.974V80H.393Z"/>
        <path class="cls-5" d="M 80.36719512939453 80.39166259765625 L 79.97434234619141 80.39166259765625 L 0.3929564356803894 80.39166259765625 L 0.0001024914890876971 80.39166259765625 L 0.0001024914890876971 79.99880218505859 L 0.0001024914890876971 0.3928525149822235 L 0.0001024914890876971 -1.451787170481111e-06 L 0.3929564356803894 -1.451787170481111e-06 L 79.97434234619141 -1.451787170481111e-06 L 80.36719512939453 -1.451787170481111e-06 L 80.36719512939453 0.3928525149822235 L 80.36719512939453 79.99880218505859 L 80.36719512939453 80.39166259765625 Z M 0.7858104109764099 79.60594940185547 L 79.58148956298828 79.60594940185547 L 79.58148956298828 0.7857065200805664 L 0.7858104109764099 0.7857065200805664 L 0.7858104109764099 79.60594940185547 Z"/>
      </g>
      <g id="Rectangle_41" data-name="Rectangle 41" class="cls-2" transform="translate(557.085 398.045)">
        <path class="cls-4" d="M.393.393H79.974V80H.393Z"/>
        <path class="cls-5" d="M 80.36719512939453 80.39166259765625 L 79.97434234619141 80.39166259765625 L 0.3929564356803894 80.39166259765625 L 0.0001024914890876971 80.39166259765625 L 0.0001024914890876971 79.99880218505859 L 0.0001024914890876971 0.3928525149822235 L 0.0001024914890876971 -1.451787170481111e-06 L 0.3929564356803894 -1.451787170481111e-06 L 79.97434234619141 -1.451787170481111e-06 L 80.36719512939453 -1.451787170481111e-06 L 80.36719512939453 0.3928525149822235 L 80.36719512939453 79.99880218505859 L 80.36719512939453 80.39166259765625 Z M 0.7858104109764099 79.60594940185547 L 79.58148956298828 79.60594940185547 L 79.58148956298828 0.7857065200805664 L 0.7858104109764099 0.7857065200805664 L 0.7858104109764099 79.60594940185547 Z"/>
      </g>
      <g id="Rectangle_42" data-name="Rectangle 42" class="cls-3" transform="translate(477.504 398.045)">
        <path class="cls-4" d="M.393.393H79.974V80H.393Z"/>
        <path class="cls-5" d="M 80.36709594726562 80.39166259765625 L 79.9742431640625 80.39166259765625 L 0.3928605318069458 80.39166259765625 L 6.579874025192112e-06 80.39166259765625 L 6.579874025192112e-06 79.99880218505859 L 6.579874025192112e-06 0.3928525149822235 L 6.579874025192112e-06 -1.451787170481111e-06 L 0.3928605318069458 -1.451787170481111e-06 L 79.9742431640625 -1.451787170481111e-06 L 80.36709594726562 -1.451787170481111e-06 L 80.36709594726562 0.3928525149822235 L 80.36709594726562 79.99880218505859 L 80.36709594726562 80.39166259765625 Z M 0.7857145071029663 79.60594940185547 L 79.58139038085938 79.60594940185547 L 79.58139038085938 0.7857065200805664 L 0.7857145071029663 0.7857065200805664 L 0.7857145071029663 79.60594940185547 Z"/>
      </g>
      <g id="Rectangle_43" data-name="Rectangle 43" class="cls-2" transform="translate(397.922 398.045)">
        <path class="cls-4" d="M.393.393H79.974V80H.393Z"/>
        <path class="cls-5" d="M 80.36709594726562 80.39166259765625 L 79.9742431640625 80.39166259765625 L 0.3928605318069458 80.39166259765625 L 6.579874025192112e-06 80.39166259765625 L 6.579874025192112e-06 79.99880218505859 L 6.579874025192112e-06 0.3928525149822235 L 6.579874025192112e-06 -1.451787170481111e-06 L 0.3928605318069458 -1.451787170481111e-06 L 79.9742431640625 -1.451787170481111e-06 L 80.36709594726562 -1.451787170481111e-06 L 80.36709594726562 0.3928525149822235 L 80.36709594726562 79.99880218505859 L 80.36709594726562 80.39166259765625 Z M 0.7857145071029663 79.60594940185547 L 79.58139038085938 79.60594940185547 L 79.58139038085938 0.7857065200805664 L 0.7857145071029663 0.7857065200805664 L 0.7857145071029663 79.60594940185547 Z"/>
      </g>
      <g id="Rectangle_44" data-name="Rectangle 44" class="cls-3" transform="translate(318.341 398.045)">
        <path class="cls-4" d="M.393.393H79.974V80H.393Z"/>
        <path class="cls-5" d="M 80.36709594726562 80.39166259765625 L 79.9742431640625 80.39166259765625 L 0.3928605318069458 80.39166259765625 L 6.579874025192112e-06 80.39166259765625 L 6.579874025192112e-06 79.99880218505859 L 6.579874025192112e-06 0.3928525149822235 L 6.579874025192112e-06 -1.451787170481111e-06 L 0.3928605318069458 -1.451787170481111e-06 L 79.9742431640625 -1.451787170481111e-06 L 80.36709594726562 -1.451787170481111e-06 L 80.36709594726562 0.3928525149822235 L 80.36709594726562 79.99880218505859 L 80.36709594726562 80.39166259765625 Z M 0.7857145071029663 79.60594940185547 L 79.58139038085938 79.60594940185547 L 79.58139038085938 0.7857065200805664 L 0.7857145071029663 0.7857065200805664 L 0.7857145071029663 79.60594940185547 Z"/>
      </g>
      <g id="Rectangle_45" data-name="Rectangle 45" class="cls-2" transform="translate(238.76 398.045)">
        <path class="cls-4" d="M.393.393H79.974V80H.393Z"/>
        <path class="cls-5" d="M 80.36709594726562 80.39166259765625 L 79.9742431640625 80.39166259765625 L 0.3928605318069458 80.39166259765625 L 6.579874025192112e-06 80.39166259765625 L 6.579874025192112e-06 79.99880218505859 L 6.579874025192112e-06 0.3928525149822235 L 6.579874025192112e-06 -1.451787170481111e-06 L 0.3928605318069458 -1.451787170481111e-06 L 79.9742431640625 -1.451787170481111e-06 L 80.36709594726562 -1.451787170481111e-06 L 80.36709594726562 0.3928525149822235 L 80.36709594726562 79.99880218505859 L 80.36709594726562 80.39166259765625 Z M 0.7857145071029663 79.60594940185547 L 79.58139038085938 79.60594940185547 L 79.58139038085938 0.7857065200805664 L 0.7857145071029663 0.7857065200805664 L 0.7857145071029663 79.60594940185547 Z"/>
      </g>
      <g id="Rectangle_46" data-name="Rectangle 46" class="cls-3" transform="translate(159.163 398.045)">
        <path class="cls-4" d="M.393.393H79.974V80H.393Z"/>
        <path class="cls-5" d="M 80.36705017089844 80.39166259765625 L 79.97419738769531 80.39166259765625 L 0.3928126096725464 80.39166259765625 L -4.137593350606039e-05 80.39166259765625 L -4.137593350606039e-05 79.99880218505859 L -4.137593350606039e-05 0.3928525149822235 L -4.137593350606039e-05 -1.451787170481111e-06 L 0.3928126096725464 -1.451787170481111e-06 L 79.97419738769531 -1.451787170481111e-06 L 80.36705017089844 -1.451787170481111e-06 L 80.36705017089844 0.3928525149822235 L 80.36705017089844 79.99880218505859 L 80.36705017089844 80.39166259765625 Z M 0.7856665253639221 79.60594940185547 L 79.58134460449219 79.60594940185547 L 79.58134460449219 0.7857065200805664 L 0.7856665253639221 0.7857065200805664 L 0.7856665253639221 79.60594940185547 Z"/>
      </g>
      <g id="Rectangle_47" data-name="Rectangle 47" class="cls-2" transform="translate(79.581 398.045)">
        <path class="cls-4" d="M.393.393H79.974V80H.393Z"/>
        <path class="cls-5" d="M 80.36705017089844 80.39166259765625 L 79.97419738769531 80.39166259765625 L 0.3928126096725464 80.39166259765625 L -4.137593350606039e-05 80.39166259765625 L -4.137593350606039e-05 79.99880218505859 L -4.137593350606039e-05 0.3928525149822235 L -4.137593350606039e-05 -1.451787170481111e-06 L 0.3928126096725464 -1.451787170481111e-06 L 79.97419738769531 -1.451787170481111e-06 L 80.36705017089844 -1.451787170481111e-06 L 80.36705017089844 0.3928525149822235 L 80.36705017089844 79.99880218505859 L 80.36705017089844 80.39166259765625 Z M 0.7856665253639221 79.60594940185547 L 79.58134460449219 79.60594940185547 L 79.58134460449219 0.7857065200805664 L 0.7856665253639221 0.7857065200805664 L 0.7856665253639221 79.60594940185547 Z"/>
      </g>
      <g id="Rectangle_48" data-name="Rectangle 48" class="cls-3" transform="translate(0 398.045)">
        <path class="cls-4" d="M.393.393H79.974V80H.393Z"/>
        <path class="cls-5" d="M 80.36714935302734 80.39166259765625 L 79.97429656982422 80.39166259765625 L 0.3929084837436676 80.39166259765625 L 5.453568155644462e-05 80.39166259765625 L 5.453568155644462e-05 79.99880218505859 L 5.453568155644462e-05 0.3928525149822235 L 5.453568155644462e-05 -1.451787170481111e-06 L 0.3929084837436676 -1.451787170481111e-06 L 79.97429656982422 -1.451787170481111e-06 L 80.36714935302734 -1.451787170481111e-06 L 80.36714935302734 0.3928525149822235 L 80.36714935302734 79.99880218505859 L 80.36714935302734 80.39166259765625 Z M 0.7857624888420105 79.60594940185547 L 79.58143615722656 79.60594940185547 L 79.58143615722656 0.7857065200805664 L 0.7857624888420105 0.7857065200805664 L 0.7857624888420105 79.60594940185547 Z"/>
      </g>
      <g id="Rectangle_49" data-name="Rectangle 49" class="cls-2" transform="translate(0 477.651)">
        <path class="cls-4" d="M.393.393H79.974V80H.393Z"/>
        <path class="cls-5" d="M 80.36714935302734 80.39166259765625 L 79.97429656982422 80.39166259765625 L 0.3929084837436676 80.39166259765625 L 5.453568155644462e-05 80.39166259765625 L 5.453568155644462e-05 79.99880218505859 L 5.453568155644462e-05 0.3928525149822235 L 5.453568155644462e-05 -1.451787170481111e-06 L 0.3929084837436676 -1.451787170481111e-06 L 79.97429656982422 -1.451787170481111e-06 L 80.36714935302734 -1.451787170481111e-06 L 80.36714935302734 0.3928525149822235 L 80.36714935302734 79.99880218505859 L 80.36714935302734 80.39166259765625 Z M 0.7857624888420105 79.60594940185547 L 79.58143615722656 79.60594940185547 L 79.58143615722656 0.7857065200805664 L 0.7857624888420105 0.7857065200805664 L 0.7857624888420105 79.60594940185547 Z"/>
      </g>
      <g id="Rectangle_50" data-name="Rectangle 50" class="cls-3" transform="translate(79.581 477.651)">
        <path class="cls-4" d="M.393.393H79.974V80H.393Z"/>
        <path class="cls-5" d="M 80.36705017089844 80.39166259765625 L 79.97419738769531 80.39166259765625 L 0.3928126096725464 80.39166259765625 L -4.137593350606039e-05 80.39166259765625 L -4.137593350606039e-05 79.99880218505859 L -4.137593350606039e-05 0.3928525149822235 L -4.137593350606039e-05 -1.451787170481111e-06 L 0.3928126096725464 -1.451787170481111e-06 L 79.97419738769531 -1.451787170481111e-06 L 80.36705017089844 -1.451787170481111e-06 L 80.36705017089844 0.3928525149822235 L 80.36705017089844 79.99880218505859 L 80.36705017089844 80.39166259765625 Z M 0.7856665253639221 79.60594940185547 L 79.58134460449219 79.60594940185547 L 79.58134460449219 0.7857065200805664 L 0.7856665253639221 0.7857065200805664 L 0.7856665253639221 79.60594940185547 Z"/>
      </g>
      <g id="Rectangle_51" data-name="Rectangle 51" class="cls-2" transform="translate(159.163 477.651)">
        <path class="cls-4" d="M.393.393H79.974V80H.393Z"/>
        <path class="cls-5" d="M 80.36705017089844 80.39166259765625 L 79.97419738769531 80.39166259765625 L 0.3928126096725464 80.39166259765625 L -4.137593350606039e-05 80.39166259765625 L -4.137593350606039e-05 79.99880218505859 L -4.137593350606039e-05 0.3928525149822235 L -4.137593350606039e-05 -1.451787170481111e-06 L 0.3928126096725464 -1.451787170481111e-06 L 79.97419738769531 -1.451787170481111e-06 L 80.36705017089844 -1.451787170481111e-06 L 80.36705017089844 0.3928525149822235 L 80.36705017089844 79.99880218505859 L 80.36705017089844 80.39166259765625 Z M 0.7856665253639221 79.60594940185547 L 79.58134460449219 79.60594940185547 L 79.58134460449219 0.7857065200805664 L 0.7856665253639221 0.7857065200805664 L 0.7856665253639221 79.60594940185547 Z"/>
      </g>
      <g id="Rectangle_52" data-name="Rectangle 52" class="cls-3" transform="translate(238.76 477.651)">
        <path class="cls-4" d="M.393.393H79.974V80H.393Z"/>
        <path class="cls-5" d="M 80.36709594726562 80.39166259765625 L 79.9742431640625 80.39166259765625 L 0.3928605318069458 80.39166259765625 L 6.579874025192112e-06 80.39166259765625 L 6.579874025192112e-06 79.99880218505859 L 6.579874025192112e-06 0.3928525149822235 L 6.579874025192112e-06 -1.451787170481111e-06 L 0.3928605318069458 -1.451787170481111e-06 L 79.9742431640625 -1.451787170481111e-06 L 80.36709594726562 -1.451787170481111e-06 L 80.36709594726562 0.3928525149822235 L 80.36709594726562 79.99880218505859 L 80.36709594726562 80.39166259765625 Z M 0.7857145071029663 79.60594940185547 L 79.58139038085938 79.60594940185547 L 79.58139038085938 0.7857065200805664 L 0.7857145071029663 0.7857065200805664 L 0.7857145071029663 79.60594940185547 Z"/>
      </g>
      <g id="Rectangle_53" data-name="Rectangle 53" class="cls-2" transform="translate(318.341 477.651)">
        <path class="cls-4" d="M.393.393H79.974V80H.393Z"/>
        <path class="cls-5" d="M 80.36709594726562 80.39166259765625 L 79.9742431640625 80.39166259765625 L 0.3928605318069458 80.39166259765625 L 6.579874025192112e-06 80.39166259765625 L 6.579874025192112e-06 79.99880218505859 L 6.579874025192112e-06 0.3928525149822235 L 6.579874025192112e-06 -1.451787170481111e-06 L 0.3928605318069458 -1.451787170481111e-06 L 79.9742431640625 -1.451787170481111e-06 L 80.36709594726562 -1.451787170481111e-06 L 80.36709594726562 0.3928525149822235 L 80.36709594726562 79.99880218505859 L 80.36709594726562 80.39166259765625 Z M 0.7857145071029663 79.60594940185547 L 79.58139038085938 79.60594940185547 L 79.58139038085938 0.7857065200805664 L 0.7857145071029663 0.7857065200805664 L 0.7857145071029663 79.60594940185547 Z"/>
      </g>
      <g id="Rectangle_54" data-name="Rectangle 54" class="cls-3" transform="translate(397.922 477.651)">
        <path class="cls-4" d="M.393.393H79.974V80H.393Z"/>
        <path class="cls-5" d="M 80.36709594726562 80.39166259765625 L 79.9742431640625 80.39166259765625 L 0.3928605318069458 80.39166259765625 L 6.579874025192112e-06 80.39166259765625 L 6.579874025192112e-06 79.99880218505859 L 6.579874025192112e-06 0.3928525149822235 L 6.579874025192112e-06 -1.451787170481111e-06 L 0.3928605318069458 -1.451787170481111e-06 L 79.9742431640625 -1.451787170481111e-06 L 80.36709594726562 -1.451787170481111e-06 L 80.36709594726562 0.3928525149822235 L 80.36709594726562 79.99880218505859 L 80.36709594726562 80.39166259765625 Z M 0.7857145071029663 79.60594940185547 L 79.58139038085938 79.60594940185547 L 79.58139038085938 0.7857065200805664 L 0.7857145071029663 0.7857065200805664 L 0.7857145071029663 79.60594940185547 Z"/>
      </g>
      <g id="Rectangle_55" data-name="Rectangle 55" class="cls-2" transform="translate(477.504 477.651)">
        <path class="cls-4" d="M.393.393H79.974V80H.393Z"/>
        <path class="cls-5" d="M 80.36709594726562 80.39166259765625 L 79.9742431640625 80.39166259765625 L 0.3928605318069458 80.39166259765625 L 6.579874025192112e-06 80.39166259765625 L 6.579874025192112e-06 79.99880218505859 L 6.579874025192112e-06 0.3928525149822235 L 6.579874025192112e-06 -1.451787170481111e-06 L 0.3928605318069458 -1.451787170481111e-06 L 79.9742431640625 -1.451787170481111e-06 L 80.36709594726562 -1.451787170481111e-06 L 80.36709594726562 0.3928525149822235 L 80.36709594726562 79.99880218505859 L 80.36709594726562 80.39166259765625 Z M 0.7857145071029663 79.60594940185547 L 79.58139038085938 79.60594940185547 L 79.58139038085938 0.7857065200805664 L 0.7857145071029663 0.7857065200805664 L 0.7857145071029663 79.60594940185547 Z"/>
      </g>
      <g id="Rectangle_56" data-name="Rectangle 56" class="cls-3" transform="translate(557.085 477.651)">
        <path class="cls-4" d="M.393.393H79.974V80H.393Z"/>
        <path class="cls-5" d="M 80.36719512939453 80.39166259765625 L 79.97434234619141 80.39166259765625 L 0.3929564356803894 80.39166259765625 L 0.0001024914890876971 80.39166259765625 L 0.0001024914890876971 79.99880218505859 L 0.0001024914890876971 0.3928525149822235 L 0.0001024914890876971 -1.451787170481111e-06 L 0.3929564356803894 -1.451787170481111e-06 L 79.97434234619141 -1.451787170481111e-06 L 80.36719512939453 -1.451787170481111e-06 L 80.36719512939453 0.3928525149822235 L 80.36719512939453 79.99880218505859 L 80.36719512939453 80.39166259765625 Z M 0.7858104109764099 79.60594940185547 L 79.58148956298828 79.60594940185547 L 79.58148956298828 0.7857065200805664 L 0.7858104109764099 0.7857065200805664 L 0.7858104109764099 79.60594940185547 Z"/>
      </g>
      <g id="Rectangle_57" data-name="Rectangle 57" class="cls-2" transform="translate(557.085 557.257)">
        <path class="cls-4" d="M.393.393H79.974V80H.393Z"/>
        <path class="cls-5" d="M 80.36719512939453 80.39166259765625 L 79.97434234619141 80.39166259765625 L 0.3929564356803894 80.39166259765625 L 0.0001024914890876971 80.39166259765625 L 0.0001024914890876971 79.99880218505859 L 0.0001024914890876971 0.3928525149822235 L 0.0001024914890876971 -1.451787170481111e-06 L 0.3929564356803894 -1.451787170481111e-06 L 79.97434234619141 -1.451787170481111e-06 L 80.36719512939453 -1.451787170481111e-06 L 80.36719512939453 0.3928525149822235 L 80.36719512939453 79.99880218505859 L 80.36719512939453 80.39166259765625 Z M 0.7858104109764099 79.60594940185547 L 79.58148956298828 79.60594940185547 L 79.58148956298828 0.7857065200805664 L 0.7858104109764099 0.7857065200805664 L 0.7858104109764099 79.60594940185547 Z"/>
      </g>
      <g id="Rectangle_58" data-name="Rectangle 58" class="cls-3" transform="translate(477.504 557.257)">
        <path class="cls-4" d="M.393.393H79.974V80H.393Z"/>
        <path class="cls-5" d="M 80.36709594726562 80.39166259765625 L 79.9742431640625 80.39166259765625 L 0.3928605318069458 80.39166259765625 L 6.579874025192112e-06 80.39166259765625 L 6.579874025192112e-06 79.99880218505859 L 6.579874025192112e-06 0.3928525149822235 L 6.579874025192112e-06 -1.451787170481111e-06 L 0.3928605318069458 -1.451787170481111e-06 L 79.9742431640625 -1.451787170481111e-06 L 80.36709594726562 -1.451787170481111e-06 L 80.36709594726562 0.3928525149822235 L 80.36709594726562 79.99880218505859 L 80.36709594726562 80.39166259765625 Z M 0.7857145071029663 79.60594940185547 L 79.58139038085938 79.60594940185547 L 79.58139038085938 0.7857065200805664 L 0.7857145071029663 0.7857065200805664 L 0.7857145071029663 79.60594940185547 Z"/>
      </g>
      <g id="Rectangle_59" data-name="Rectangle 59" class="cls-2" transform="translate(397.922 557.257)">
        <path class="cls-4" d="M.393.393H79.974V80H.393Z"/>
        <path class="cls-5" d="M 80.36709594726562 80.39166259765625 L 79.9742431640625 80.39166259765625 L 0.3928605318069458 80.39166259765625 L 6.579874025192112e-06 80.39166259765625 L 6.579874025192112e-06 79.99880218505859 L 6.579874025192112e-06 0.3928525149822235 L 6.579874025192112e-06 -1.451787170481111e-06 L 0.3928605318069458 -1.451787170481111e-06 L 79.9742431640625 -1.451787170481111e-06 L 80.36709594726562 -1.451787170481111e-06 L 80.36709594726562 0.3928525149822235 L 80.36709594726562 79.99880218505859 L 80.36709594726562 80.39166259765625 Z M 0.7857145071029663 79.60594940185547 L 79.58139038085938 79.60594940185547 L 79.58139038085938 0.7857065200805664 L 0.7857145071029663 0.7857065200805664 L 0.7857145071029663 79.60594940185547 Z"/>
      </g>
      <g id="Rectangle_60" data-name="Rectangle 60" class="cls-3" transform="translate(318.341 557.257)">
        <path class="cls-4" d="M.393.393H79.974V80H.393Z"/>
        <path class="cls-5" d="M 80.36709594726562 80.39166259765625 L 79.9742431640625 80.39166259765625 L 0.3928605318069458 80.39166259765625 L 6.579874025192112e-06 80.39166259765625 L 6.579874025192112e-06 79.99880218505859 L 6.579874025192112e-06 0.3928525149822235 L 6.579874025192112e-06 -1.451787170481111e-06 L 0.3928605318069458 -1.451787170481111e-06 L 79.9742431640625 -1.451787170481111e-06 L 80.36709594726562 -1.451787170481111e-06 L 80.36709594726562 0.3928525149822235 L 80.36709594726562 79.99880218505859 L 80.36709594726562 80.39166259765625 Z M 0.7857145071029663 79.60594940185547 L 79.58139038085938 79.60594940185547 L 79.58139038085938 0.7857065200805664 L 0.7857145071029663 0.7857065200805664 L 0.7857145071029663 79.60594940185547 Z"/>
      </g>
      <g id="Rectangle_61" data-name="Rectangle 61" class="cls-2" transform="translate(238.76 557.257)">
        <path class="cls-4" d="M.393.393H79.974V80H.393Z"/>
        <path class="cls-5" d="M 80.36709594726562 80.39166259765625 L 79.9742431640625 80.39166259765625 L 0.3928605318069458 80.39166259765625 L 6.579874025192112e-06 80.39166259765625 L 6.579874025192112e-06 79.99880218505859 L 6.579874025192112e-06 0.3928525149822235 L 6.579874025192112e-06 -1.451787170481111e-06 L 0.3928605318069458 -1.451787170481111e-06 L 79.9742431640625 -1.451787170481111e-06 L 80.36709594726562 -1.451787170481111e-06 L 80.36709594726562 0.3928525149822235 L 80.36709594726562 79.99880218505859 L 80.36709594726562 80.39166259765625 Z M 0.7857145071029663 79.60594940185547 L 79.58139038085938 79.60594940185547 L 79.58139038085938 0.7857065200805664 L 0.7857145071029663 0.7857065200805664 L 0.7857145071029663 79.60594940185547 Z"/>
      </g>
      <g id="Rectangle_62" data-name="Rectangle 62" class="cls-3" transform="translate(159.163 557.257)">
        <path class="cls-4" d="M.393.393H79.974V80H.393Z"/>
        <path class="cls-5" d="M 80.36705017089844 80.39166259765625 L 79.97419738769531 80.39166259765625 L 0.3928126096725464 80.39166259765625 L -4.137593350606039e-05 80.39166259765625 L -4.137593350606039e-05 79.99880218505859 L -4.137593350606039e-05 0.3928525149822235 L -4.137593350606039e-05 -1.451787170481111e-06 L 0.3928126096725464 -1.451787170481111e-06 L 79.97419738769531 -1.451787170481111e-06 L 80.36705017089844 -1.451787170481111e-06 L 80.36705017089844 0.3928525149822235 L 80.36705017089844 79.99880218505859 L 80.36705017089844 80.39166259765625 Z M 0.7856665253639221 79.60594940185547 L 79.58134460449219 79.60594940185547 L 79.58134460449219 0.7857065200805664 L 0.7856665253639221 0.7857065200805664 L 0.7856665253639221 79.60594940185547 Z"/>
      </g>
      <g id="Rectangle_63" data-name="Rectangle 63" class="cls-2" transform="translate(79.581 557.257)">
        <path class="cls-4" d="M.393.393H79.974V80H.393Z"/>
        <path class="cls-5" d="M 80.36705017089844 80.39166259765625 L 79.97419738769531 80.39166259765625 L 0.3928126096725464 80.39166259765625 L -4.137593350606039e-05 80.39166259765625 L -4.137593350606039e-05 79.99880218505859 L -4.137593350606039e-05 0.3928525149822235 L -4.137593350606039e-05 -1.451787170481111e-06 L 0.3928126096725464 -1.451787170481111e-06 L 79.97419738769531 -1.451787170481111e-06 L 80.36705017089844 -1.451787170481111e-06 L 80.36705017089844 0.3928525149822235 L 80.36705017089844 79.99880218505859 L 80.36705017089844 80.39166259765625 Z M 0.7856665253639221 79.60594940185547 L 79.58134460449219 79.60594940185547 L 79.58134460449219 0.7857065200805664 L 0.7856665253639221 0.7857065200805664 L 0.7856665253639221 79.60594940185547 Z"/>
      </g>
      <g id="Rectangle_64" data-name="Rectangle 64" class="cls-3" transform="translate(0 557.257)">
        <path class="cls-4" d="M.393.393H79.974V80H.393Z"/>
        <path class="cls-5" d="M 80.36714935302734 80.39166259765625 L 79.97429656982422 80.39166259765625 L 0.3929084837436676 80.39166259765625 L 5.453568155644462e-05 80.39166259765625 L 5.453568155644462e-05 79.99880218505859 L 5.453568155644462e-05 0.3928525149822235 L 5.453568155644462e-05 -1.451787170481111e-06 L 0.3929084837436676 -1.451787170481111e-06 L 79.97429656982422 -1.451787170481111e-06 L 80.36714935302734 -1.451787170481111e-06 L 80.36714935302734 0.3928525149822235 L 80.36714935302734 79.99880218505859 L 80.36714935302734 80.39166259765625 Z M 0.7857624888420105 79.60594940185547 L 79.58143615722656 79.60594940185547 L 79.58143615722656 0.7857065200805664 L 0.7857624888420105 0.7857065200805664 L 0.7857624888420105 79.60594940185547 Z"/>
      </g>
    </g>
  </g>
</svg>
