<svg id="Group_25" data-name="Group 25" xmlns="http://www.w3.org/2000/svg" xmlns:xlink="http://www.w3.org/1999/xlink" width="509.118" height="473.86" viewBox="0 0 509.118 473.86">
  <defs>
    <style>
      .cls-1 {
        fill: url(#linear-gradient);
      }

      .cls-2 {
        fill: #fff;
      }

      .cls-3 {
        fill: url(#linear-gradient-2);
      }
    </style>
    <linearGradient id="linear-gradient" x1="0.5" x2="0.5" y2="1" gradientUnits="objectBoundingBox">
      <stop offset="0"/>
      <stop offset="1" stop-color="#545454"/>
    </linearGradient>
    <linearGradient id="linear-gradient-2" x1="0.5" x2="0.5" y2="1" gradientUnits="objectBoundingBox">
      <stop offset="0" stop-color="#fff"/>
      <stop offset="1" stop-color="#aaa"/>
    </linearGradient>
  </defs>
  <g id="bn" transform="translate(0)">
    <g id="Group_15" data-name="Group 15">
      <path id="Path_105" data-name="Path 105" class="cls-1" d="M311.514,46.22a162.077,162.077,0,0,1,66.345,18.463,174.451,174.451,0,0,1,51.985,41.481q15.046,17.781,28.263,42.866a266.223,266.223,0,0,1,21.425,53.093,332.248,332.248,0,0,1,11.4,68.6q2.507,35.786,2.507,66.344v49.684H213.081q-2.052,0-2.051-11.168a92.96,92.96,0,0,1,5.925-33.5q3.419-10.028,11.4-24.39,3.646-7.293,17.321-21.2,13.678-14.132,31.455-32.593,10.258-10.482,15.953-26.44,5.926-15.953,5.015-28.945a78.591,78.591,0,0,1-18.463,11.168Q231.314,237,209.668,269.835q-1.6,2.052-10.256,18.463-4.559,8.661-7.751,11.854-4.331,4.331-12.536,4.785-12.764.684-19.831-12.306a51.525,51.525,0,0,1-17.1,2.279q-12.764-4.786-18.463-10.256-11.626-11.626-15.272-23.248a88.5,88.5,0,0,1-3.419-25.072q0-19.143,23.7-50.579,27.81-36.24,29.631-55.138a121.291,121.291,0,0,1,1.6-18.463,38.061,38.061,0,0,1,5.7-13.674q2.963-4.558,3.875-6.153a61.608,61.608,0,0,1,3.875-5.241,40,40,0,0,1,3.419-4.1q1.367-1.6,3.419-4.1,2.507-2.962,6.383-6.839a167.3,167.3,0,0,1-9.8-68.6Q222.2,19.624,252.988,54.275a76.713,76.713,0,0,1,29.631-41.711A90.74,90.74,0,0,1,311.565,46.3" transform="translate(-105.045 -3.44)"/>
      <path id="Path_106" data-name="Path 106" class="cls-2" d="M134.167,86.037q.911-2.051,2.963-6.153,3.875-9.575,3.875-11.4Q140.549,62.1,134.4,62.1q-4.559,0-10.712,12.992a9.046,9.046,0,0,1-2.735,3.191Q114.795,84.668,122.772,89q7.293,4.331,11.4-2.963" transform="translate(-61.921 187.861)"/>
      <path id="Path_107" data-name="Path 107" class="cls-2" d="M166.107,89.4a74.208,74.208,0,0,0,15.727-46.744q-.912-7.523-8.663-7.521-10.482,0-8.207,7.751.683,12.534-2.507,20.743Q157.215,76.623,150.833,83q-3.42,6.839,4.1,10.031,7.293,3.419,11.168-3.647" transform="translate(40.788 99.918)"/>
      <path id="Path_108" data-name="Path 108" class="cls-2" d="M162.607,35.375a58.8,58.8,0,0,1,.456-17.777q-13.678,2.736-25.754,12.762-7.293,3.875-3.419,10.712,3.875,7.069,10.712,2.279,4.786-2.507,8.663-4.559a34.048,34.048,0,0,1,9.344-3.419" transform="translate(-15.367 42.729)"/>
      <path id="Path_109" data-name="Path 109" class="cls-2" d="M303.059,325.589q-.229,0,.456-12.306.683-12.534.684-26.9.228-28.494,0-58.8a245.349,245.349,0,0,0-8.207-60.848q-7.753-29.171-17.1-49.684A201.513,201.513,0,0,0,258.61,81.269Q242.2,56.655,213.954,39.557a167.911,167.911,0,0,0-59.015-22.336,41.972,41.972,0,0,1,.456,10.712,79.289,79.289,0,0,0,.228,10.486,240.7,240.7,0,0,1,41.711,18.689q19.6,11.166,28.719,24.16a201.511,201.511,0,0,1,20.287,35.784q9.344,20.511,17.1,49.684a252.664,252.664,0,0,1,7.977,60.848q.228,30.315.228,58.8,0,14.362-.684,26.9-.684,12.31,0,12.306h32.137" transform="translate(57.66 41.499)"/>
      <path id="Path_110" data-name="Path 110" class="cls-2" d="M136.937,68.761q6.609-4.558,1.367-10.942-5.471-5.242-12.08-.912-13.9,9.114-14.816,23.934.228,7.523,8.888,7.065,8.207-.683,7.977-8.433a15.768,15.768,0,0,1,8.663-10.712" transform="translate(-84.292 164.529)"/>
      <path id="Path_111" data-name="Path 111" class="cls-2" d="M160.432,45.08l5.015-2.507q6.839-2.734,4.329-10.03-2.736-6.839-10.486-4.559-26.9,9.8-37.152,36.014-1.6,7.523,5.471,10.256,7.063,2.28,9.575-5.015a30.2,30.2,0,0,1,2.735-5.015,13.824,13.824,0,0,0,6.609,2.735q13.9,2.28,16.183-12.306a13.713,13.713,0,0,0-2.279-9.575" transform="translate(-50.263 74.739)"/>
    </g>
  </g>
  <g id="wn" transform="translate(120.731 90.547)">
    <g id="Group_21" data-name="Group 21">
      <path id="Path_144" data-name="Path 144" d="M311.511,246.443a162.074,162.074,0,0,1,66.344,18.463,174.448,174.448,0,0,1,51.984,41.481q15.046,17.781,28.263,42.866a266.219,266.219,0,0,1,21.424,53.092,332.232,332.232,0,0,1,11.4,68.6q2.507,35.786,2.507,66.344v49.683H213.08q-2.052,0-2.051-11.168a92.961,92.961,0,0,1,5.925-33.5q3.419-10.028,11.4-24.39,3.646-7.293,17.321-21.2,13.678-14.132,31.455-32.592,10.258-10.482,15.953-26.439,5.926-15.953,5.015-28.945A78.676,78.676,0,0,1,279.632,419.9q-48.32,17.321-69.965,50.152-1.6,2.052-10.256,18.463-4.558,8.661-7.751,11.854-4.331,4.331-12.536,4.785-12.764.684-19.831-12.31a51.514,51.514,0,0,1-17.1,2.279q-12.764-4.786-18.463-10.256-11.626-11.626-15.271-23.248a88.5,88.5,0,0,1-3.419-25.072q0-19.143,23.7-50.578,27.809-36.24,29.631-55.137a121.291,121.291,0,0,1,1.6-18.463,38.069,38.069,0,0,1,5.7-13.674q2.963-4.558,3.875-6.153a61.562,61.562,0,0,1,3.875-5.241,40.006,40.006,0,0,1,3.419-4.1q1.367-1.595,3.419-4.1,2.507-2.962,6.383-6.839a167.294,167.294,0,0,1-9.8-68.6q45.354,16.183,76.144,50.834a76.712,76.712,0,0,1,29.631-41.711,90.74,90.74,0,0,1,28.945,33.734" transform="translate(-105.045 -203.659)"/>
      <path id="Path_145" data-name="Path 145" class="cls-3" d="M454.189,552.492q-.229,0,.456-12.31.683-12.534.684-26.9.228-28.493,0-58.8a245.37,245.37,0,0,0-8.207-60.847q-7.753-29.171-17.1-49.683a201.509,201.509,0,0,0-20.287-35.784q-16.413-24.614-44.655-41.711a167.911,167.911,0,0,0-59.015-22.336A108.191,108.191,0,0,1,307.894,266q-.456,8.207-7.751,8.207-8.437,0-7.521-8.207.683-30.085-21.424-51.515-17.321,18.235-18.689,42.393-.456,7.977-8.207,7.065-7.293-.228-7.295-8.433l.456-1.823a117.093,117.093,0,0,0-19.6,8.433q-6.609,4.559-10.712-2.279t3.647-10.712q9.8-5.013,14.816-7.521a161.878,161.878,0,0,0-44.655-32.367A159.455,159.455,0,0,0,198.279,269.2q3.875,5.927-1.823,10.486-6.382,5.015-10.712-1.6a73.224,73.224,0,0,1-4.559-8.207,63.613,63.613,0,0,0-6.383,7.065,101.1,101.1,0,0,0-5.7,9.118,111.837,111.837,0,0,0-5.7,11.624,24.407,24.407,0,0,0-1.823,9.344q.456,3.419.684,7.751a67.161,67.161,0,0,1-9.344,25.3q-7.069,11.85-18.233,28.945-10.712,16.413-16.409,24.616t-8.663,20.968q-2.052,7.747,0,18.919,2.051,10.942,8.888,17.1,10.482,10.712,20.287,9.8,3.191,0,8.432-2.507,5.47-2.507,8.432-9.575,5.926-12.994,9.8-12.992,5.7,0,6.153,6.383,0,1.368-3.647,11.4a63.274,63.274,0,0,1-5.471,9.575q-4.331,5.926-3.875,5.015,3.647,12.994,12.08,4.559,2.507-2.507,5.7-9.344t10.03-18.463a96.775,96.775,0,0,1,17.1-21.88,199.737,199.737,0,0,1,16.183-13.674q4.1-2.962,10.03-6.839a96.694,96.694,0,0,1,15.953-7.977q7.977-3.191,17.551-7.751a66.818,66.818,0,0,0,17.321-12.08,69.073,69.073,0,0,0,16.183-25.3q2.962-8.43,2.279-20.743-2.052-7.747,7.751-7.751,7.293,0,8.207,7.521A81.02,81.02,0,0,1,300.4,374.959q4.786,14.585,2.507,31.911-2.052,13.9-9.8,29.857-7.523,15.729-30.769,35.1-47.182,39.205-44.655,80.7H454.262" transform="translate(-93.475 -185.447)"/>
      <path id="Path_146" data-name="Path 146" d="M134.992,267.868q-6.609,4.1-7.977,10.942.228,7.523-7.065,8.207-7.977.912-8.207-6.839.911-15.046,13.448-23.934,5.926-4.786,10.942.912,5.014,6.154-1.14,10.712" transform="translate(-83.2 -39.305)"/>
      <path id="Path_147" data-name="Path 147" d="M162.631,245.319a13.709,13.709,0,0,1,2.279,9.574q-2.279,14.585-16.183,12.306a13.816,13.816,0,0,1-6.609-2.735,30.118,30.118,0,0,0-2.735,5.015q-2.507,7.293-9.574,5.015-7.069-2.735-5.471-10.256,10.258-26.212,37.152-36.014,7.747-2.279,10.256,4.559,2.735,7.293-4.1,10.03-1.368.684-2.507,1.367-1.14.456-2.507,1.139" transform="translate(-43.089 -125.411)"/>
    </g>
  </g>
</svg>
