<svg xmlns="http://www.w3.org/2000/svg" width="620" height="624" viewBox="0 0 620 624"><defs><style>.a{fill:#8c7e68;}.b{fill:#ffefd6;}</style></defs><g transform="translate(-3477 -5245)"><rect class="a" width="78" height="78" transform="translate(3709 5245)"/><rect class="a" width="78" height="78" transform="translate(3709 5557)"/><rect class="a" width="78" height="78" transform="translate(3709 5401)"/><rect class="a" width="78" height="78" transform="translate(3709 5713)"/><rect class="a" width="78" height="78" transform="translate(3787 5323)"/><rect class="a" width="78" height="78" transform="translate(3787 5635)"/><rect class="a" width="78" height="78" transform="translate(3787 5479)"/><rect class="a" width="78" height="78" transform="translate(3787 5791)"/><rect class="a" width="78" height="78" transform="translate(3554 5245)"/><rect class="a" width="78" height="78" transform="translate(3554 5557)"/><rect class="a" width="78" height="78" transform="translate(3554 5401)"/><rect class="a" width="78" height="78" transform="translate(3554 5713)"/><rect class="a" width="78" height="78" transform="translate(3942 5323)"/><rect class="a" width="78" height="78" transform="translate(3942 5635)"/><rect class="a" width="78" height="78" transform="translate(3942 5479)"/><rect class="a" width="78" height="78" transform="translate(3942 5791)"/><rect class="b" width="77" height="78" transform="translate(3632 5245)"/><rect class="b" width="77" height="78" transform="translate(3632 5557)"/><rect class="b" width="77" height="78" transform="translate(3632 5401)"/><rect class="b" width="77" height="78" transform="translate(3632 5713)"/><rect class="b" width="77" height="78" transform="translate(3865 5323)"/><rect class="b" width="77" height="78" transform="translate(3865 5635)"/><rect class="b" width="77" height="78" transform="translate(3865 5479)"/><rect class="b" width="77" height="78" transform="translate(3865 5791)"/><rect class="b" width="77" height="78" transform="translate(3477 5245)"/><rect class="b" width="77" height="78" transform="translate(3477 5557)"/><rect class="b" width="77" height="78" transform="translate(3477 5401)"/><rect class="b" width="77" height="78" transform="translate(3477 5713)"/><rect class="b" width="77" height="78" transform="translate(4020 5323)"/><rect class="b" width="77" height="78" transform="translate(4020 5635)"/><rect class="b" width="77" height="78" transform="translate(4020 5479)"/><rect class="b" width="77" height="78" transform="translate(4020 5791)"/><rect class="a" width="77" height="78" transform="translate(4020 5245)"/><rect class="a" width="77" height="78" transform="translate(4020 5557)"/><rect class="a" width="77" height="78" transform="translate(4020 5401)"/><rect class="a" width="77" height="78" transform="translate(4020 5713)"/><rect class="a" width="77" height="78" transform="translate(3477 5323)"/><rect class="a" width="77" height="78" transform="translate(3477 5635)"/><rect class="a" width="77" height="78" transform="translate(3477 5479)"/><rect class="a" width="77" height="78" transform="translate(3477 5791)"/><rect class="a" width="77" height="78" transform="translate(3865 5245)"/><rect class="a" width="77" height="78" transform="translate(3865 5557)"/><rect class="a" width="77" height="78" transform="translate(3865 5401)"/><rect class="a" width="77" height="78" transform="translate(3865 5713)"/><rect class="a" width="77" height="78" transform="translate(3632 5323)"/><rect class="a" width="77" height="78" transform="translate(3632 5635)"/><rect class="a" width="77" height="78" transform="translate(3632 5479)"/><rect class="a" width="77" height="78" transform="translate(3632 5791)"/><rect class="b" width="78" height="78" transform="translate(3942 5245)"/><rect class="b" width="78" height="78" transform="translate(3942 5557)"/><rect class="b" width="78" height="78" transform="translate(3942 5401)"/><rect class="b" width="78" height="78" transform="translate(3942 5713)"/><rect class="b" width="78" height="78" transform="translate(3554 5323)"/><rect class="b" width="78" height="78" transform="translate(3554 5635)"/><rect class="b" width="78" height="78" transform="translate(3554 5479)"/><rect class="b" width="78" height="78" transform="translate(3554 5791)"/><rect class="b" width="78" height="78" transform="translate(3787 5245)"/><rect class="b" width="78" height="78" transform="translate(3787 5557)"/><rect class="b" width="78" height="78" transform="translate(3787 5401)"/><rect class="b" width="78" height="78" transform="translate(3787 5713)"/><rect class="b" width="78" height="78" transform="translate(3709 5323)"/><rect class="b" width="78" height="78" transform="translate(3709 5635)"/><rect class="b" width="78" height="78" transform="translate(3709 5479)"/><rect class="b" width="78" height="78" transform="translate(3709 5791)"/></g></svg>